<?xml version="1.0" encoding="UTF-8"?> <svg xmlns="http://www.w3.org/2000/svg" xmlns:xlink="http://www.w3.org/1999/xlink" id="Layer_1" data-name="Layer 1" viewBox="0 0 592.1 373.4"><defs><style>.cls-1{fill:url(#radial-gradient);}.cls-2,.cls-6{fill:#fff;}.cls-3{fill:#fafafa;}.cls-4,.cls-9{fill:none;stroke:#fff;stroke-miterlimit:10;}.cls-4{stroke-width:3.38px;}.cls-5{opacity:0;}.cls-6{fill-opacity:0;}.cls-7{fill:url(#linear-gradient);}.cls-8{fill:url(#linear-gradient-2);}.cls-9{stroke-width:7.61px;}</style><radialGradient id="radial-gradient" cx="297.7" cy="304.36" r="320.8" gradientTransform="matrix(1, 0, 0, -1, 0, 376)" gradientUnits="userSpaceOnUse"><stop offset="0" stop-color="#00d7d7"></stop><stop offset="1" stop-color="#00a5f0"></stop></radialGradient><linearGradient id="linear-gradient" x1="72.37" y1="180.57" x2="127.09" y2="235.29" gradientTransform="matrix(1, 0, 0, -1, 0, 376)" gradientUnits="userSpaceOnUse"><stop offset="0.16" stop-color="#bedce6"></stop><stop offset="0.45" stop-color="#e6f5ff"></stop><stop offset="0.58" stop-color="#e2f2fc"></stop><stop offset="0.91" stop-color="#bedce6"></stop></linearGradient><linearGradient id="linear-gradient-2" x1="72.35" y1="235.25" x2="127.05" y2="180.56" xlink:href="#linear-gradient"></linearGradient></defs><title>illustration-18</title><path class="cls-1" d="M592,351.4a22,22,0,0,1-22,22H22a22,22,0,0,1-22-22V22A21.94,21.94,0,0,1,22,0H570.1a22,22,0,0,1,22,22V351.4Z" transform="translate(0 0)"></path><path id="VISA" class="cls-2" d="M481.5,304.1l-17.1,40.8H453.3l-8.4-32.5c-.5-2-1-2.7-2.5-3.6a42.19,42.19,0,0,0-10.4-3.5l.3-1.2h17.9a5,5,0,0,1,4.9,4.2l4.4,23.6,11-27.7h11Zm43.7,27.5c0-10.8-14.9-11.4-14.8-16.2,0-1.5,1.4-3,4.5-3.4a20.58,20.58,0,0,1,10.4,1.8l1.8-8.6a28.71,28.71,0,0,0-9.9-1.8c-10.4,0-17.8,5.5-17.8,13.5-.1,5.9,5.2,9.1,9.2,11.1s5.5,3.3,5.5,5.1c0,2.7-3.3,3.9-6.3,4a21,21,0,0,1-10.8-2.6l-1.9,8.9a33.75,33.75,0,0,0,11.7,2.2c11.1-.1,18.4-5.5,18.4-14m27.6,13.3h9.8l-8.5-40.8h-9a4.91,4.91,0,0,0-4.5,3l-15.8,37.8h11.1l2.2-6.1h13.5ZM541,330.5l5.6-15.3,3.2,15.3Zm-44.4-26.4-8.7,40.8H477.4l8.7-40.8Z" transform="translate(0 0)"></path><g id="Logo_NEON" data-name="Logo NEON"><path class="cls-3" d="M171.1,79.4h0a7.76,7.76,0,0,1,0,11A34.2,34.2,0,0,1,112.8,64a34.49,34.49,0,0,1,32-32A34.14,34.14,0,0,1,171,41.9a7.67,7.67,0,0,1,0,11h0a7.94,7.94,0,0,1-11,0,19.43,19.43,0,0,0-13.2-5,17.76,17.76,0,0,0-18,19,17.94,17.94,0,0,0,16.9,17.4c5.6.3,10.7-1.4,14.3-5A8.07,8.07,0,0,1,171.1,79.4Z" transform="translate(0 0)"></path><path class="cls-3" d="M215.3,32a34.2,34.2,0,1,0,34.2,34.2A34.18,34.18,0,0,0,215.3,32Zm-.1,52.3a18.1,18.1,0,1,1,18.1-18.1A18.1,18.1,0,0,1,215.2,84.3Z" transform="translate(0 0)"></path><path class="cls-3" d="M82.3,98h0a8.09,8.09,0,0,1,.1-11.5,22.47,22.47,0,1,0-31.9,0A8.09,8.09,0,0,1,50.6,98h0a8,8,0,0,1-11.2.2,38.65,38.65,0,1,1,54.4-.3A8,8,0,0,1,82.3,98Z" transform="translate(0 0)"></path><path class="cls-3" d="M311.6,98h0a8.09,8.09,0,0,1,.1-11.5,22.57,22.57,0,0,0-17.1-38.4,22.91,22.91,0,0,0-21.4,21.8,22.61,22.61,0,0,0,6.5,16.7,8.09,8.09,0,0,1,.1,11.5h0a8,8,0,0,1-11.2.2A38.65,38.65,0,1,1,323,98,8,8,0,0,1,311.6,98Z" transform="translate(0 0)"></path><circle class="cls-3" cx="146.6" cy="66.2" r="8"></circle></g><polyline class="cls-4" points="563.1 121.5 563.1 152.3 562.7 152.3 452.3 163 452.3 194.3"></polyline><polyline class="cls-4" points="563.1 75.8 563.1 106.5 562.7 106.6 452.3 117.3 452.3 148.5"></polyline><polyline class="cls-4" points="563.1 30 563.1 60.8 562.7 60.8 452.3 71.5 452.3 102.8"></polyline><path class="cls-4" d="M460.3,153.7" transform="translate(0 0)"></path><g class="cls-5"><path class="cls-2" d="M465.5,204.5a5.9,5.9,0,0,1-.2,1.4,3,3,0,0,1-1.8,1.8,3.18,3.18,0,0,1-1.4.2h-2.5v-6.8h2.5a5.9,5.9,0,0,1,1.4.2,2.59,2.59,0,0,1,1.1.7,4.13,4.13,0,0,1,.7,1.1A5.9,5.9,0,0,1,465.5,204.5Zm-1.1,0a3,3,0,0,0-.2-1,2.18,2.18,0,0,0-.5-.8,1.79,1.79,0,0,0-.7-.5,2.92,2.92,0,0,0-.9-.2h-1.4v5h1.4a2.39,2.39,0,0,0,.9-.2,1.79,1.79,0,0,0,.7-.5,5.58,5.58,0,0,0,.5-.8A1.64,1.64,0,0,0,464.4,204.5Z" transform="translate(0 0)"></path><path class="cls-2" d="M472.2,207.9h-.8c-.1,0-.2,0-.2-.1s-.1-.1-.1-.2l-.6-1.5h-2.9l-.6,1.5c0,.1-.1.1-.1.2s-.1.1-.2.1h-.8l2.7-6.8h1.1Zm-4.4-2.6h2.3l-.9-2.5c0-.1-.1-.2-.1-.3s-.1-.3-.1-.4c0,.1-.1.3-.1.4s-.1.2-.1.3Z" transform="translate(0 0)"></path><path class="cls-2" d="M477,201.1v.9h-2.1v5.8h-1.1V202h-2.1v-.9Z" transform="translate(0 0)"></path><path class="cls-2" d="M482.9,207.9H482c-.1,0-.2,0-.2-.1s-.1-.1-.1-.2l-.6-1.5h-2.9l-.6,1.5c0,.1-.1.1-.1.2s-.1.1-.2.1h-.8l2.7-6.8h1.1Zm-4.4-2.6h2.3l-.9-2.5c0-.1-.1-.2-.1-.3s-.1-.3-.1-.4c0,.1-.1.3-.1.4s-.1.2-.1.3Z" transform="translate(0 0)"></path></g><g class="cls-5"><path class="cls-2" d="M463.8,211v.9h-3.1v2h2.5v.9h-2.5v2.1h3.1v.9h-4.2V211Z" transform="translate(0 0)"></path><path class="cls-2" d="M466.5,214.3l-2.2-3.3h1.3l.1.1,1.6,2.6v-.1a.1.1,0,0,1,.1-.1l1.5-2.3a.1.1,0,0,1,.1-.1h1.1l-2.2,3.2,2.3,3.5h-1.1c-.1,0-.1,0-.2-.1l-.1-.1-1.7-2.7v.1a.1.1,0,0,1-.1.1l-1.6,2.5a.1.1,0,0,1-.1.1.35.35,0,0,1-.2.1h-1Z" transform="translate(0 0)"></path><path class="cls-2" d="M472.3,215.3v2.4h-1.1V211h2.1a3.59,3.59,0,0,1,1.1.2,2,2,0,0,1,.8.4,1.79,1.79,0,0,1,.5.7,2.13,2.13,0,0,1,0,1.8,1.79,1.79,0,0,1-.5.7,5.58,5.58,0,0,1-.8.5,3.59,3.59,0,0,1-1.1.2h-1Zm0-.9h1c.2,0,.5,0,.6-.1s.3-.2.5-.3.2-.3.3-.4a.9.9,0,0,0,.1-.5.75.75,0,0,0-.1-.5,1.38,1.38,0,0,0-.3-.4,2.19,2.19,0,0,0-.5-.3,1.48,1.48,0,0,0-.7-.1h-1v2.6Z" transform="translate(0 0)"></path><path class="cls-2" d="M475.7,217.2a.37.37,0,0,1,.1-.3.35.35,0,0,1,.1-.2c.1-.1.1-.1.2-.1s.2-.1.3-.1a.37.37,0,0,1,.3.1c.1,0,.1.1.2.1s.1.1.1.2.1.2.1.3a.37.37,0,0,1-.1.3c0,.1-.1.1-.1.2s-.1.1-.2.1-.2.1-.3.1a.37.37,0,0,1-.3-.1c-.1,0-.1-.1-.2-.1s-.1-.1-.1-.2A.37.37,0,0,1,475.7,217.2Z" transform="translate(0 0)"></path></g><g class="cls-5"><path class="cls-2" d="M464.3,231.7c.1,0,.1,0,.2.1l.4.5a3.92,3.92,0,0,1-1,.8,3.19,3.19,0,0,1-1.4.3,2.77,2.77,0,0,1-1.3-.3,3.59,3.59,0,0,1-1-.7,2.38,2.38,0,0,1-.6-1.1,3.18,3.18,0,0,1-.2-1.4,5.9,5.9,0,0,1,.2-1.4,4.13,4.13,0,0,1,.7-1.1,3,3,0,0,1,1.1-.7,3.08,3.08,0,0,1,1.3-.3,5.07,5.07,0,0,1,1.3.2,8.79,8.79,0,0,1,1,.6l-.4.5-.1.1h-.1c-.1,0-.1,0-.2-.1s-.2-.1-.3-.2-.3-.1-.5-.2a1.48,1.48,0,0,0-.7-.1,2.92,2.92,0,0,0-.9.2,1.79,1.79,0,0,0-.7.5,5.58,5.58,0,0,0-.5.8,3.12,3.12,0,0,0,0,2.2,2.18,2.18,0,0,0,.5.8,1.79,1.79,0,0,0,.7.5,2.92,2.92,0,0,0,.9.2h.5c.1,0,.3-.1.4-.1s.2-.1.4-.2l.3-.3C464.2,231.7,464.2,231.7,464.3,231.7Z" transform="translate(0 0)"></path><path class="cls-2" d="M472,229.8a5.9,5.9,0,0,1-.2,1.4A3,3,0,0,1,470,233a3.42,3.42,0,0,1-2.8,0,3,3,0,0,1-1.8-1.8,3.18,3.18,0,0,1-.2-1.4,5.9,5.9,0,0,1,.2-1.4,3,3,0,0,1,1.8-1.8,3.42,3.42,0,0,1,2.8,0,3,3,0,0,1,1.8,1.8A3.4,3.4,0,0,1,472,229.8Zm-1.1,0a3,3,0,0,0-.2-1,2.18,2.18,0,0,0-.5-.8,1.79,1.79,0,0,0-.7-.5,2.92,2.92,0,0,0-.9-.2,2.39,2.39,0,0,0-.9.2,1.79,1.79,0,0,0-.7.5,2.18,2.18,0,0,0-.5.8,3.55,3.55,0,0,0-.2,1,4.25,4.25,0,0,0,.2,1.1,2.18,2.18,0,0,0,.5.8,1.79,1.79,0,0,0,.7.5,2.92,2.92,0,0,0,.9.2,2.39,2.39,0,0,0,.9-.2,1.79,1.79,0,0,0,.7-.5,5.58,5.58,0,0,0,.5-.8A2,2,0,0,0,470.9,229.8Zm-.3-5.3-1.5,1.3c-.1.1-.1.1-.2.1H468l1-1.3.1-.1a.1.1,0,0,0,.1-.1h1.4Z" transform="translate(0 0)"></path><path class="cls-2" d="M479.2,229.8a5.9,5.9,0,0,1-.2,1.4,3,3,0,0,1-1.8,1.8,3.18,3.18,0,0,1-1.4.2h-2.5v-6.8h2.5a5.9,5.9,0,0,1,1.4.2,2.59,2.59,0,0,1,1.1.7,4.13,4.13,0,0,1,.7,1.1A3.18,3.18,0,0,1,479.2,229.8Zm-1.2,0a3,3,0,0,0-.2-1,2.18,2.18,0,0,0-.5-.8,1.79,1.79,0,0,0-.7-.5,2.92,2.92,0,0,0-.9-.2h-1.4v5h1.4a2.39,2.39,0,0,0,.9-.2,3,3,0,0,0,.7-.5,5.58,5.58,0,0,0,.5-.8A1.64,1.64,0,0,0,478,229.8Z" transform="translate(0 0)"></path><path class="cls-2" d="M481.5,233.2h-1.1v-6.8h1.1Z" transform="translate(0 0)"></path><path class="cls-2" d="M486.3,233.3a4,4,0,0,1-1.5-.3,4.13,4.13,0,0,1-1.1-.7,2.59,2.59,0,0,1-.7-1.1,3.19,3.19,0,0,1-.3-1.4,5.9,5.9,0,0,1,.2-1.4,3,3,0,0,1,1.8-1.8,3.19,3.19,0,0,1,1.4-.3,2.2,2.2,0,0,1,.8.1,1.42,1.42,0,0,1,.6.2l.6.3a1.76,1.76,0,0,1,.5.4l-.3.5c-.1.1-.1.1-.2.1a.37.37,0,0,1-.3-.1c-.1-.1-.2-.1-.3-.2s-.2-.1-.3-.2a.75.75,0,0,0-.5-.1h-.6a3,3,0,0,0-1,.2,1.79,1.79,0,0,0-.7.5,2.18,2.18,0,0,0-.5.8,3.55,3.55,0,0,0-.2,1,3.59,3.59,0,0,0,.2,1.1,2.1,2.1,0,0,0,1.3,1.3,3,3,0,0,0,1,.2,1.48,1.48,0,0,0,.7-.1c.2-.1.4-.1.6-.2v-1.3h-.9c-.1,0-.1,0-.2-.1a.35.35,0,0,1-.1-.2v-.6h2.2v2.7A3.23,3.23,0,0,1,486.3,233.3Z" transform="translate(0 0)"></path><path class="cls-2" d="M496.3,229.8a5.9,5.9,0,0,1-.2,1.4,3,3,0,0,1-1.8,1.8,3.42,3.42,0,0,1-2.8,0,3,3,0,0,1-1.8-1.8,3.18,3.18,0,0,1-.2-1.4,5.9,5.9,0,0,1,.2-1.4,3,3,0,0,1,1.8-1.8,3.42,3.42,0,0,1,2.8,0,3,3,0,0,1,1.8,1.8A6.75,6.75,0,0,1,496.3,229.8Zm-1.2,0a3,3,0,0,0-.2-1,2.18,2.18,0,0,0-.5-.8,1.79,1.79,0,0,0-.7-.5,2.92,2.92,0,0,0-.9-.2,2.39,2.39,0,0,0-.9.2,1.79,1.79,0,0,0-.7.5,2.18,2.18,0,0,0-.5.8,3.55,3.55,0,0,0-.2,1,4.25,4.25,0,0,0,.2,1.1,2.18,2.18,0,0,0,.5.8,1.79,1.79,0,0,0,.7.5,2.92,2.92,0,0,0,.9.2,2.39,2.39,0,0,0,.9-.2,1.79,1.79,0,0,0,.7-.5,5.58,5.58,0,0,0,.5-.8A2,2,0,0,0,495.1,229.8Z" transform="translate(0 0)"></path><path class="cls-2" d="M505.7,229.8a5.9,5.9,0,0,1-.2,1.4,3,3,0,0,1-1.8,1.8,3.18,3.18,0,0,1-1.4.2h-2.5v-6.8h2.5a5.9,5.9,0,0,1,1.4.2,2.59,2.59,0,0,1,1.1.7,4.13,4.13,0,0,1,.7,1.1A3.18,3.18,0,0,1,505.7,229.8Zm-1.1,0a3,3,0,0,0-.2-1,2.18,2.18,0,0,0-.5-.8,1.79,1.79,0,0,0-.7-.5,2.92,2.92,0,0,0-.9-.2h-1.4v5h1.4a2.39,2.39,0,0,0,.9-.2,1.79,1.79,0,0,0,.7-.5,5.58,5.58,0,0,0,.5-.8A2.51,2.51,0,0,0,504.6,229.8Z" transform="translate(0 0)"></path><path class="cls-2" d="M511.1,226.5v.9H508v2h2.5v.9H508v2.1h3.1v.9h-4.2v-6.8Z" transform="translate(0 0)"></path></g><g class="cls-5"><path class="cls-2" d="M463.1,237.5a.1.1,0,0,1-.1.1h-.1c-.1,0-.1,0-.2-.1s-.2-.1-.3-.2-.2-.1-.4-.2a1.3,1.3,0,0,0-1,0,.76.76,0,0,0-.4.2c-.1.1-.2.2-.2.3s-.1.2-.1.4,0,.3.1.4a1.38,1.38,0,0,0,.4.3.76.76,0,0,0,.5.2c.2.1.4.1.6.2s.4.1.6.2a2.19,2.19,0,0,1,.5.3,1,1,0,0,1,.4.5,1.48,1.48,0,0,1,.1.7,1.88,1.88,0,0,1-.2.8,4.35,4.35,0,0,1-.4.7c-.1.2-.4.3-.7.5a3,3,0,0,1-1,.2,1.27,1.27,0,0,1-.6-.1,1.42,1.42,0,0,1-.6-.2,2.19,2.19,0,0,1-.5-.3.78.78,0,0,1-.4-.4l.3-.5.1-.1h.1c.1,0,.2,0,.2.1s.2.1.3.2a.76.76,0,0,0,.4.2,1.27,1.27,0,0,0,.6.1,1.22,1.22,0,0,0,.9-.3,1.14,1.14,0,0,0,.3-.8.9.9,0,0,0-.1-.5,1.38,1.38,0,0,0-.4-.3.76.76,0,0,0-.5-.2c-.2-.1-.4-.1-.6-.2s-.4-.1-.6-.2a1.73,1.73,0,0,1-.9-.8,2,2,0,0,1-.1-.8,1.7,1.7,0,0,1,.1-.7,2.09,2.09,0,0,1,.4-.6,1.61,1.61,0,0,1,.7-.4,2.92,2.92,0,0,1,.9-.2,4.25,4.25,0,0,1,1.1.2,2.18,2.18,0,0,1,.8.5Z" transform="translate(0 0)"></path><path class="cls-2" d="M468.9,236.3v.9h-3.1v2h2.5v.9h-2.5v2.1h3.1v.9h-4.2v-6.8Z" transform="translate(0 0)"></path><path class="cls-2" d="M473.2,243.2a4,4,0,0,1-1.5-.3,4.13,4.13,0,0,1-1.1-.7,2.59,2.59,0,0,1-.7-1.1,3.19,3.19,0,0,1-.3-1.4,5.9,5.9,0,0,1,.2-1.4,3,3,0,0,1,1.8-1.8,3.19,3.19,0,0,1,1.4-.3,2.2,2.2,0,0,1,.8.1,1.42,1.42,0,0,1,.6.2l.6.3a1.76,1.76,0,0,1,.5.4l-.3.5c-.1.1-.1.1-.2.1a.37.37,0,0,1-.3-.1c-.1-.1-.2-.1-.3-.2s-.2-.1-.3-.2a.75.75,0,0,0-.5-.1H473a3,3,0,0,0-1,.2,1.79,1.79,0,0,0-.7.5,2.18,2.18,0,0,0-.5.8,3.55,3.55,0,0,0-.2,1,3.59,3.59,0,0,0,.2,1.1,2.1,2.1,0,0,0,1.3,1.3,3,3,0,0,0,1,.2,1.48,1.48,0,0,0,.7-.1c.2-.1.4-.1.6-.2v-1.3h-.9c-.1,0-.1,0-.2-.1a.35.35,0,0,1-.1-.2v-.6h2.2v2.7A4.1,4.1,0,0,1,473.2,243.2Z" transform="translate(0 0)"></path><path class="cls-2" d="M479.5,242.2a1.48,1.48,0,0,0,.7-.1,1,1,0,0,0,.5-.4c.1-.2.3-.3.3-.6a1.7,1.7,0,0,0,.1-.7v-4.1h1.1v4.1a3.59,3.59,0,0,1-.2,1.1,4.05,4.05,0,0,1-.5.9,3.49,3.49,0,0,1-.9.6,3.13,3.13,0,0,1-2.2,0,2.36,2.36,0,0,1-.9-.6,1.93,1.93,0,0,1-.5-.9,3.59,3.59,0,0,1-.2-1.1v-4.1h1.1v4.1a1.48,1.48,0,0,0,.1.7l.3.6a1,1,0,0,0,.5.4A1.48,1.48,0,0,0,479.5,242.2Z" transform="translate(0 0)"></path><path class="cls-2" d="M484.8,240.4v2.7h-1.1v-6.8h2a3.75,3.75,0,0,1,1.1.1,2,2,0,0,1,.8.4,2.65,2.65,0,0,1,.5.6,2,2,0,0,1,.1.8,1.7,1.7,0,0,1-.1.7l-.3.6a1,1,0,0,1-.5.4,4.88,4.88,0,0,1-.7.3c.1.1.3.2.4.3l1.8,2.6h-1a.52.52,0,0,1-.4-.2l-1.6-2.3-.2-.2a.37.37,0,0,0-.3-.1h-.5Zm0-.8h.9a1.48,1.48,0,0,0,.7-.1,1.33,1.33,0,0,0,.5-.3,1.38,1.38,0,0,0,.3-.4.9.9,0,0,0,.1-.5c0-.4-.1-.7-.4-.8a1.61,1.61,0,0,0-1.1-.3h-.9v2.4Z" transform="translate(0 0)"></path><path class="cls-2" d="M495.3,243.1h-.8c-.1,0-.2,0-.2-.1s-.1-.1-.1-.2l-.6-1.5h-2.9l-.6,1.5c0,.1-.1.1-.1.2s-.1.1-.2.1H489l2.7-6.8h1.1Zm-4.4-2.5h2.3l-.9-2.5c0-.1-.1-.2-.1-.3s-.1-.3-.1-.4c0,.1-.1.3-.1.4s-.1.2-.1.3Z" transform="translate(0 0)"></path><path class="cls-2" d="M496.8,236.4h0c.1,0,.1.1.2.1l.1.1,3.7,4.8v-5h1v6.8H501c-.1,0-.1-.1-.2-.1l-3.7-4.8v4.9h-1v-6.8h.6C496.7,236.3,496.8,236.4,496.8,236.4Z" transform="translate(0 0)"></path><path class="cls-2" d="M505.6,244.2h.4a.37.37,0,0,0,.3-.1c.1,0,.1-.1.1-.2a.22.22,0,0,0-.2-.2,4.33,4.33,0,0,0-.5-.1l.2-.6a2.38,2.38,0,0,1-1.2-.3,2.18,2.18,0,0,1-.9-.7,2.38,2.38,0,0,1-.6-1.1,5.07,5.07,0,0,1-.2-1.3,5.9,5.9,0,0,1,.2-1.4,4.13,4.13,0,0,1,.7-1.1,3,3,0,0,1,1.1-.7,3.08,3.08,0,0,1,1.3-.3,5.07,5.07,0,0,1,1.3.2,8.79,8.79,0,0,1,1,.6l-.4.5-.1.1H508c-.1,0-.1,0-.2-.1s-.2-.1-.3-.2-.3-.1-.5-.2a1.48,1.48,0,0,0-.7-.1,2.92,2.92,0,0,0-.9.2,1.79,1.79,0,0,0-.7.5,5.58,5.58,0,0,0-.5.8,3.12,3.12,0,0,0,0,2.2,2.18,2.18,0,0,0,.5.8,1.79,1.79,0,0,0,.7.5,2.92,2.92,0,0,0,.9.2h.5c.1,0,.3-.1.4-.1s.2-.1.4-.2l.3-.3c.1-.1.1-.1.2-.1s.1,0,.2.1l.4.5a5.5,5.5,0,0,1-.9.7,2.77,2.77,0,0,1-1.3.3l-.1.2a1.63,1.63,0,0,1,.6.3.76.76,0,0,1,.2.4.37.37,0,0,1-.1.3c-.1.1-.1.2-.2.2a.37.37,0,0,1-.3.1h-.8c-.1,0-.2-.1-.3-.1l.1-.3C505.5,244.3,505.6,244.2,505.6,244.2Z" transform="translate(0 0)"></path><path class="cls-2" d="M515.2,243.1h-.8c-.1,0-.2,0-.2-.1s-.1-.1-.1-.2l-.6-1.5h-2.9l-.6,1.5c0,.1-.1.1-.1.2s-.1.1-.2.1h-.8l2.7-6.8h1.1Zm-4.4-2.5h2.3l-.9-2.5c0-.1-.1-.2-.1-.3s-.1-.3-.1-.4c0,.1-.1.3-.1.4s-.1.2-.1.3Z" transform="translate(0 0)"></path></g><g id="PAN" class="cls-5"><path class="cls-6" d="M539,234.6v-1.1h2.3a1.44,1.44,0,0,0,1.1-.3c.2-.2.4-.6.4-1.6a2.37,2.37,0,0,0-.4-1.6,1.44,1.44,0,0,0-1.1-.3H539c-.7,0-.9.1-1.1.3s-.4.8-.4,1.9h-1.3c0-1.3.2-2.2.8-2.7a2.57,2.57,0,0,1,1.8-.5h2.8a2.29,2.29,0,0,1,1.8.5,3.17,3.17,0,0,1,.7,2.3c0,1.5-.6,2.3-1.4,2.5h0c1,.2,1.5.9,1.5,2.6,0,1.4-.2,2.1-.7,2.6a2.29,2.29,0,0,1-1.8.5h-2.9a2.4,2.4,0,0,1-1.8-.5c-.6-.5-.7-1.4-.8-2.9h1.3c0,1.3.2,1.9.4,2.1s.4.3,1.1.3h2.4a1.44,1.44,0,0,0,1.1-.3c.2-.2.4-.6.4-1.8a2.88,2.88,0,0,0-.4-1.8,1.44,1.44,0,0,0-1.1-.3H539Z" transform="translate(0 0)"></path><path class="cls-6" d="M552.2,228.8a2.55,2.55,0,0,1,1.9.6,3,3,0,0,1,.7,2.3c0,1.6-.6,2.3-1.5,2.5h0c1,.2,1.6.9,1.6,2.6a3.25,3.25,0,0,1-.7,2.5,2.65,2.65,0,0,1-2,.6h-2.8a2.65,2.65,0,0,1-2-.6,3.25,3.25,0,0,1-.7-2.5c0-1.7.6-2.4,1.6-2.6h0c-.9-.2-1.5-.9-1.5-2.5a3,3,0,0,1,.7-2.3,2.55,2.55,0,0,1,1.9-.6Zm-.2,10a1.92,1.92,0,0,0,1.2-.3c.3-.3.4-.7.4-1.7s-.1-1.5-.4-1.8a1.46,1.46,0,0,0-1.2-.4h-2.3a1.46,1.46,0,0,0-1.2.4c-.3.3-.4.8-.4,1.8s.2,1.5.4,1.7.6.3,1.2.3Zm0-5.2c.6,0,.9-.1,1.1-.4s.4-.6.4-1.6a2,2,0,0,0-.4-1.5,1.44,1.44,0,0,0-1.1-.3h-2.4a1.61,1.61,0,0,0-1.1.3,2,2,0,0,0-.4,1.5,2.58,2.58,0,0,0,.4,1.6,1.42,1.42,0,0,0,1.1.4Z" transform="translate(0 0)"></path><polygon class="cls-6" points="556.9 228.8 564.6 228.8 564.6 229.6 559.7 239.9 558.3 239.9 563.2 229.9 556.9 229.9 556.9 228.8"></polygon><path class="cls-6" d="M526.7,203.7a3,3,0,0,1,2.1.5c.6.6,1,1.5,1,5s-.4,4.5-1,5c-.4.4-.9.5-2.1.5h-2.3a3,3,0,0,1-2.1-.5c-.6-.6-1-1.5-1-5s.4-4.5,1-5c.4-.4.9-.5,2.1-.5Zm-2.3,1.1c-.7,0-1,.1-1.2.3s-.6.9-.6,4.2.3,3.9.6,4.2.4.3,1.2.3h2.3c.7,0,1-.1,1.2-.3s.6-.9.6-4.2-.3-3.9-.6-4.2-.4-.3-1.2-.3Z" transform="translate(0 0)"></path><path class="cls-6" d="M539.1,209.5a2.74,2.74,0,0,1-2,.8h-2.3a3.22,3.22,0,0,1-2-.5c-.5-.5-.7-1.2-.7-2.7s.2-2.2.7-2.7a2.55,2.55,0,0,1,1.9-.6h2.5a2.93,2.93,0,0,1,2.1.6c.6.6,1,1.5,1,5s-.4,4.4-1,5a2.93,2.93,0,0,1-2.1.6h-2.6c-.9,0-1.4-.1-1.7-.5-.5-.5-.6-1-.6-2.5h1.2c0,1.1.1,1.4.4,1.6a1.33,1.33,0,0,0,1,.3h2.4a1.88,1.88,0,0,0,1.3-.3c.2-.5.5-1,.5-4.1m-1.7-.3a2.7,2.7,0,0,0,1.6-.5c0-2.6-.3-3.3-.6-3.6s-.4-.3-1.2-.3H535a1.92,1.92,0,0,0-1.2.3,3.28,3.28,0,0,0-.4,1.9c0,1.2.1,1.6.4,1.9s.5.3,1.2.3Z" transform="translate(0 0)"></path><polygon class="cls-6" points="541.1 217.4 547.6 203.6 548.7 203.6 542.3 217.4 541.1 217.4"></polygon><polygon class="cls-6" points="552.1 214.8 552.1 205 550.1 205.8 549.7 204.8 552.3 203.7 553.3 203.7 553.3 214.8 552.1 214.8"></polygon><path class="cls-6" d="M556.8,209.5l.4-5.7h7.1v1.1h-6l-.3,3.9h.1a2.91,2.91,0,0,1,2.3-.7h1.5a2.55,2.55,0,0,1,1.9.6c.5.5.7,1.2.7,2.9s-.2,2.3-.7,2.9a2.4,2.4,0,0,1-1.9.6h-3c-.9,0-1.5-.1-1.8-.5-.5-.5-.7-1-.7-2.7h1.3c0,1.3.2,1.7.4,1.9a1.33,1.33,0,0,0,1,.3h2.6c.6,0,.8-.1,1-.3s.4-.8.4-2.1-.1-1.8-.4-2a1.33,1.33,0,0,0-1-.3H560a3.41,3.41,0,0,0-2.3.8Z" transform="translate(0 0)"></path><path class="cls-2" d="M481.1,47.3V41.2H469.2V40a4.26,4.26,0,0,1,.9-2.8l7.3-11.9c.9-1.5,1.6-1.9,2.9-1.9h4.5V38.2h4v3.1h-4v6.1h-3.7Zm-.6-20.8-7,11.6h7.6V26.5Z" transform="translate(0 0)"></path><path class="cls-2" d="M505.9,23.3c2.6,0,3.7.2,4.8,1.2,1.3,1.2,2.4,3.6,2.4,10.8s-1,9.6-2.4,10.8c-1.1,1-2.2,1.2-4.8,1.2h-4.5c-2.6,0-3.7-.2-4.8-1.2-1.3-1.2-2.4-3.6-2.4-10.8s1-9.6,2.4-10.8c1.1-1,2.2-1.2,4.8-1.2Zm-4.5,3.3c-1.3,0-1.7.2-2,.5s-1.1,1.6-1.1,8.2.6,7.8,1.1,8.2c.3.3.7.5,2,.5h4.4c1.3,0,1.7-.2,2-.5s1.1-1.6,1.1-8.2-.6-7.8-1.1-8.2c-.3-.3-.7-.5-2-.5Z" transform="translate(0 0)"></path><path class="cls-2" d="M530.4,23.3c2.6,0,3.7.2,4.8,1.2,1.3,1.2,2.4,3.6,2.4,10.8s-1,9.6-2.4,10.8c-1.1,1-2.2,1.2-4.8,1.2h-4.5c-2.6,0-3.7-.2-4.8-1.2-1.3-1.2-2.4-3.6-2.4-10.8s1-9.6,2.4-10.8c1.1-1,2.1-1.2,4.8-1.2Zm-4.5,3.3c-1.3,0-1.7.2-2,.5s-1.1,1.6-1.1,8.2.6,7.8,1.1,8.2c.3.3.7.5,2,.5h4.4c1.3,0,1.7-.2,2-.5s1.1-1.6,1.1-8.2-.6-7.8-1.1-8.2c-.3-.3-.7-.5-2-.5Z" transform="translate(0 0)"></path><path class="cls-2" d="M554.8,23.3c2.6,0,3.7.2,4.8,1.2,1.3,1.2,2.4,3.6,2.4,10.8s-1,9.6-2.4,10.8c-1.1,1-2.2,1.2-4.8,1.2h-4.5c-2.6,0-3.7-.2-4.8-1.2-1.3-1.2-2.4-3.6-2.4-10.8s1-9.6,2.4-10.8c1.1-1,2.2-1.2,4.8-1.2Zm-4.5,3.3c-1.3,0-1.7.2-2,.5s-1.1,1.6-1.1,8.2.6,7.8,1.1,8.2c.3.3.7.5,2,.5h4.4c1.3,0,1.7-.2,2-.5s1.1-1.6,1.1-8.2-.6-7.8-1.1-8.2c-.3-.3-.7-.5-2-.5Z" transform="translate(0 0)"></path><polygon class="cls-2" points="478.3 92.9 478.3 72.9 474.3 74.2 473.2 71.1 479 69 482.2 69 482.2 92.9 478.3 92.9"></polygon><path class="cls-2" d="M494.6,90.3c0-4,.4-5.3,1.7-6.6a8.36,8.36,0,0,1,3.7-2.1l5.9-2.3c1.2-.5,1.6-.9,1.8-1.3a5.08,5.08,0,0,0,.4-2.7,3.88,3.88,0,0,0-.6-2.4c-.4-.4-.9-.5-2.3-.5h-3.6a3,3,0,0,0-2.1.5,7.88,7.88,0,0,0-.6,3.4H495c.1-3.7.6-5.1,1.6-6.2.8-.8,2.2-1.2,4.4-1.2h5.3c2.1,0,3.3.3,4.1,1.1,1.2,1.2,1.6,3.2,1.6,5.1,0,2.5-.3,3.7-1.2,4.9-.8,1-1.9,1.6-3.9,2.4l-6,2.4a4.18,4.18,0,0,0-1.8,1.1c-.5.6-.8,1.1-.8,3.2v.3h13.8v3.4H494.5V90.3Z" transform="translate(0 0)"></path><path class="cls-2" d="M525.2,82.1V79h4.9c1.2,0,1.6-.1,2-.5a4.66,4.66,0,0,0,.7-2.9,4.66,4.66,0,0,0-.7-2.9c-.3-.3-.8-.4-1.9-.4h-4.4c-1.2,0-1.6.1-1.9.4s-.6,1.4-.7,3.5h-3.9c0-2.9.5-4.8,1.7-6.1.8-.8,2.1-1.2,4.2-1.2h6.1c2.1,0,3.3.3,4.1,1.1,1.2,1.2,1.6,3.2,1.6,5.1,0,3.2-1.5,4.8-3.2,5.2v.1c1.9.3,3.4,1.8,3.4,5.5,0,2.6-.4,4.5-1.6,5.8-.8.8-2,1.1-4.1,1.1H525c-2.1,0-3.4-.4-4.2-1.2-1.2-1.2-1.7-3.2-1.7-6.6H523c.1,2.7.3,3.7.6,4s.8.4,2,.4h4.8c1.2,0,1.7-.1,2-.5s.7-1.3.7-3.3-.4-3-.7-3.3-.8-.4-1.9-.4h-5.3Z" transform="translate(0 0)"></path><path class="cls-2" d="M554.5,92.9V86.8H542.6V85.6a4.26,4.26,0,0,1,.9-2.8l7.3-11.9c.9-1.5,1.6-1.9,2.9-1.9h4.5V83.8h4v3.1h-4V93h-3.7Zm-.6-20.7-7,11.6h7.6V72.2Z" transform="translate(0 0)"></path><path class="cls-2" d="M470.8,127l.8-12.3h15.8v3.4H475.2l-.5,6.7h.3c1.6-1.4,2.5-1.5,4.9-1.5h2.2c2.3,0,3.6.4,4.5,1.3,1.2,1.2,1.7,2.9,1.7,6.3s-.5,5.1-1.7,6.3c-.9.9-2.2,1.4-4.5,1.4h-5.6c-2,0-3.6-.3-4.4-1.2-1.1-1.1-1.6-2.5-1.6-6h3.9c.1,2.3.4,3.1.7,3.4a2.83,2.83,0,0,0,2,.5h4.5a2.83,2.83,0,0,0,2-.5c.4-.4.8-1.4.8-3.9s-.3-3.4-.8-3.8a2.83,2.83,0,0,0-2-.5H479a8.69,8.69,0,0,0-5,1.4Z" transform="translate(0 0)"></path><path class="cls-2" d="M498.5,126.3c2-1.6,2.7-1.8,4.1-1.8h4.1c2.3,0,3.5.3,4.4,1.2,1.2,1.1,1.5,2.8,1.5,5.8s-.5,4.7-1.7,5.8a5.68,5.68,0,0,1-4.3,1.4h-5c-2.6,0-3.7-.3-4.8-1.3-1.3-1.2-2.3-3.4-2.3-10.7,0-7,1-9.5,2.4-10.7,1.1-1,2.3-1.2,5-1.2h4.5c2,0,3.2.3,4,1.1,1,1.1,1.5,2.4,1.5,5.6h-4c-.1-1.9-.3-2.6-.6-3a2.53,2.53,0,0,0-1.9-.5h-3.6c-1.5,0-1.9.2-2.3.5s-1,1.7-1,7.8m3,1.4a6.14,6.14,0,0,0-3,.8c.1,4.8.7,5.8,1.1,6.2s.7.5,2.1.5h4c1.2,0,1.7-.1,2.2-.6s.6-1.5.6-3.2-.2-2.7-.6-3.2a2.89,2.89,0,0,0-2.2-.6h-4.2Z" transform="translate(0 0)"></path><polygon class="cls-2" points="519.9 114.6 536.7 114.6 536.7 117.1 526.4 138.5 522.2 138.5 532.2 118 519.9 118 519.9 114.6"></polygon><path class="cls-2" d="M555.6,114.6c2,0,3.2.4,4.1,1.3,1.1,1.1,1.6,2.6,1.6,5.1,0,3.4-1.2,4.8-3.1,5.1v.1c2.2.3,3.4,1.9,3.4,5.5,0,2.7-.5,4.3-1.7,5.5a5.68,5.68,0,0,1-4.3,1.4h-5.9c-2.2,0-3.5-.5-4.3-1.4-1.2-1.1-1.7-2.8-1.7-5.5,0-3.6,1.3-5.2,3.4-5.5v-.1c-2-.3-3.1-1.7-3.1-5.1,0-2.4.5-4,1.6-5.1.8-.9,2-1.3,4.1-1.3Zm-1,20.7c1.2,0,1.7-.1,2.2-.6s.7-1.4.7-3.1c0-1.9-.2-2.8-.7-3.3a2.89,2.89,0,0,0-2.2-.6h-4.2c-1.2,0-1.7.1-2.2.6s-.6,1.4-.6,3.3c0,1.7.2,2.6.6,3.1a2.89,2.89,0,0,0,2.2.6Zm.1-10.7c1.1,0,1.5-.1,1.9-.5s.6-1.2.6-2.9c0-1.5-.2-2.3-.6-2.7s-.9-.5-1.9-.5h-4.3c-1.1,0-1.5.1-1.9.5s-.6,1.2-.6,2.7c0,1.7.2,2.5.6,2.9s.9.5,1.9.5Z" transform="translate(0 0)"></path><path class="cls-2" d="M484.2,173.1c-2,1.5-2.7,1.8-4.1,1.8H476c-2.2,0-3.5-.3-4.3-1.2-1.2-1.1-1.5-2.9-1.5-6.1s.5-4.9,1.7-6a5.68,5.68,0,0,1,4.3-1.4h5c2.6,0,3.7.3,4.8,1.3,1.3,1.2,2.3,3.5,2.3,10.7,0,7-1,9.5-2.4,10.7-1.1,1-2.3,1.2-5,1.2h-5c-2,0-3.2-.3-4-1.1-1.1-1-1.5-2.3-1.5-5.4h3.8c.1,1.8.3,2.4.6,2.7a2.53,2.53,0,0,0,1.9.5H481c1.5,0,1.9-.2,2.3-.5s.9-1.1.9-7.2m-3-1.5a5.55,5.55,0,0,0,2.9-.8c-.1-4.9-.7-6.3-1.1-6.7s-.7-.5-2.1-.5h-4c-1.2,0-1.7.1-2.2.6s-.6,1.6-.6,3.4.2,3,.6,3.5a2.89,2.89,0,0,0,2.2.6h4.3Z" transform="translate(0 0)"></path><path class="cls-2" d="M505.8,160.3c2.6,0,3.7.2,4.8,1.2,1.3,1.2,2.4,3.6,2.4,10.8s-1,9.6-2.4,10.8c-1.1,1-2.2,1.2-4.8,1.2h-4.5c-2.6,0-3.7-.2-4.8-1.2-1.3-1.2-2.4-3.6-2.4-10.8s1-9.6,2.4-10.8c1.1-1,2.2-1.2,4.8-1.2Zm-4.5,3.3c-1.3,0-1.7.2-2,.5s-1.1,1.6-1.1,8.2.6,7.8,1.1,8.2c.3.3.7.5,2,.5h4.4c1.3,0,1.7-.2,2-.5s1.1-1.6,1.1-8.2-.6-7.8-1.1-8.2c-.3-.3-.7-.5-2-.5Z" transform="translate(0 0)"></path><polygon class="cls-2" points="528.1 184.2 528.1 164.1 524 165.5 522.9 162.4 528.7 160.3 531.9 160.3 531.9 184.2 528.1 184.2"></polygon><path class="cls-2" d="M554.8,160.3c2.6,0,3.7.2,4.8,1.2,1.3,1.2,2.4,3.6,2.4,10.8s-1,9.6-2.4,10.8c-1.1,1-2.2,1.2-4.8,1.2h-4.5c-2.6,0-3.7-.2-4.8-1.2-1.3-1.2-2.4-3.6-2.4-10.8s1-9.6,2.4-10.8c1.1-1,2.2-1.2,4.8-1.2Zm-4.4,3.3c-1.3,0-1.7.2-2,.5s-1.1,1.6-1.1,8.2.6,7.8,1.1,8.2c.3.3.7.5,2,.5h4.4c1.3,0,1.7-.2,2-.5s1.1-1.6,1.1-8.2-.6-7.8-1.1-8.2c-.3-.3-.7-.5-2-.5Z" transform="translate(0 0)"></path></g><g id="Name" class="cls-5"><path class="cls-2" d="M27.9,346.1l5.6-14h1.9l5.6,14H39.5c-.2,0-.3,0-.4-.1s-.2-.2-.2-.3l-1.3-3.4H31.3L30,345.7c0,.1-.1.2-.2.3s-.2.1-.4.1Zm4-5.2h5.2l-2.2-5.7a10.38,10.38,0,0,1-.4-1.3,6.37,6.37,0,0,1-.2.7c-.1.2-.1.4-.2.6Z" transform="translate(0 0)"></path><path class="cls-2" d="M43,339.1a8.81,8.81,0,0,1,.5-2.9,6.78,6.78,0,0,1,1.4-2.3,7.63,7.63,0,0,1,2.3-1.5,9.43,9.43,0,0,1,3-.5,6.62,6.62,0,0,1,1.5.1,5,5,0,0,1,1.3.4,3.88,3.88,0,0,1,1.1.6l1,.7-.5.9a.54.54,0,0,1-.4.3.37.37,0,0,1-.3-.1l-.6-.3a4.35,4.35,0,0,0-.7-.4c-.3-.1-.6-.2-1-.3a6.15,6.15,0,0,0-1.4-.1,4.64,4.64,0,0,0-2.1.4,4.57,4.57,0,0,0-1.6,1.1,5.85,5.85,0,0,0-1,1.7,7.88,7.88,0,0,0-.4,2.3,6.05,6.05,0,0,0,.4,2.4,5.44,5.44,0,0,0,1.1,1.8,5.72,5.72,0,0,0,1.6,1.1,4.64,4.64,0,0,0,2.1.4,3.08,3.08,0,0,0,1-.1,2.92,2.92,0,0,0,.9-.2c.3-.1.5-.2.8-.3s.5-.2.7-.3v-3.1H51.6a.35.35,0,0,1-.4-.4v-1.1h4.3v5.4a6.73,6.73,0,0,1-1.1.7c-.4.2-.8.3-1.2.5s-.9.2-1.4.3a8.08,8.08,0,0,1-1.6.1,8.68,8.68,0,0,1-2.8-.5,5.41,5.41,0,0,1-2.2-1.5,5.94,5.94,0,0,1-1.4-2.3A9.47,9.47,0,0,1,43,339.1Z" transform="translate(0 0)"></path><path class="cls-2" d="M59.1,346.1v-14h8.6v1.5H61v4.6h5.5v1.5H61v4.8h6.7V346H59.1Z" transform="translate(0 0)"></path><path class="cls-2" d="M71.4,346.1v-14h1c.2,0,.3,0,.4.1s.2.1.3.3L81.2,343V332.1h1.7v14h-1c-.2,0-.3,0-.4-.1s-.2-.1-.3-.3L73,335.2v10.9Z" transform="translate(0 0)"></path><path class="cls-2" d="M86.3,339.1a8.81,8.81,0,0,1,.5-2.9,6.78,6.78,0,0,1,1.4-2.3,8.55,8.55,0,0,1,2.2-1.5,8.68,8.68,0,0,1,2.8-.5,7.63,7.63,0,0,1,2.7.5,8.58,8.58,0,0,1,2,1.3l-.6.9c0,.1-.1.1-.2.2s-.1.1-.3.1a.37.37,0,0,1-.3-.1c-.1-.1-.2-.1-.3-.2a2.19,2.19,0,0,0-.5-.3l-.6-.3a1.88,1.88,0,0,0-.8-.2,3.75,3.75,0,0,0-1.1-.1,5.22,5.22,0,0,0-2.1.4,3.81,3.81,0,0,0-1.6,1.1,5.85,5.85,0,0,0-1,1.7,6.81,6.81,0,0,0,0,4.6,5.45,5.45,0,0,0,1,1.7,4.18,4.18,0,0,0,1.5,1.1,5.85,5.85,0,0,0,1.9.4,3.75,3.75,0,0,0,1.1-.1,2.92,2.92,0,0,0,.9-.2,3,3,0,0,0,.8-.4c.2-.2.5-.3.7-.6a.5.5,0,0,1,.6,0l.7.8a6.32,6.32,0,0,1-5,2.2,7.63,7.63,0,0,1-2.7-.5,5.11,5.11,0,0,1-2.1-1.5,5.76,5.76,0,0,1-1.3-2.3A27.69,27.69,0,0,1,86.3,339.1Z" transform="translate(0 0)"></path><path class="cls-2" d="M101.8,346.1v-14h1.9v14Z" transform="translate(0 0)"></path><path class="cls-2" d="M106.8,346.1l5.6-14h1.9l5.6,14h-1.5c-.2,0-.3,0-.4-.1s-.2-.2-.2-.3l-1.3-3.4h-6.3l-1.3,3.4c0,.1-.1.2-.2.3s-.2.1-.4.1Zm4-5.2H116l-2.2-5.7a10.38,10.38,0,0,1-.4-1.3,6.37,6.37,0,0,1-.2.7c-.1.2-.1.4-.2.6Z" transform="translate(0 0)"></path><path class="cls-2" d="M126.3,339.1a10.38,10.38,0,0,1,.4-3.2,6.48,6.48,0,0,1,1.1-2.2,4.84,4.84,0,0,1,1.6-1.3,5.2,5.2,0,0,1,4,0,4,4,0,0,1,1.6,1.3,6.48,6.48,0,0,1,1.1,2.2,13,13,0,0,1,0,6.4,6.48,6.48,0,0,1-1.1,2.2,4.84,4.84,0,0,1-1.6,1.3,5.2,5.2,0,0,1-4,0,4.84,4.84,0,0,1-1.6-1.3,6.48,6.48,0,0,1-1.1-2.2A10.38,10.38,0,0,1,126.3,339.1Zm1.8,0a10.06,10.06,0,0,0,.3,2.7,5.44,5.44,0,0,0,.7,1.7,3.18,3.18,0,0,0,1,1,2.55,2.55,0,0,0,2.4,0,2.4,2.4,0,0,0,1-1,5.44,5.44,0,0,0,.7-1.7,12.3,12.3,0,0,0,0-5.4,5.44,5.44,0,0,0-.7-1.7,2.33,2.33,0,0,0-1.1-.9,2.55,2.55,0,0,0-2.4,0,2.84,2.84,0,0,0-1,.9,5.44,5.44,0,0,0-.7,1.7A18.7,18.7,0,0,0,128.1,339.1Z" transform="translate(0 0)"></path><path class="cls-2" d="M138.6,339.1a10.38,10.38,0,0,1,.4-3.2,6.48,6.48,0,0,1,1.1-2.2,4.84,4.84,0,0,1,1.6-1.3,5.2,5.2,0,0,1,4,0,4,4,0,0,1,1.6,1.3,6.48,6.48,0,0,1,1.1,2.2,13,13,0,0,1,0,6.4,6.48,6.48,0,0,1-1.1,2.2,4.84,4.84,0,0,1-1.6,1.3,5.2,5.2,0,0,1-4,0,4.84,4.84,0,0,1-1.6-1.3,6.48,6.48,0,0,1-1.1-2.2A10.38,10.38,0,0,1,138.6,339.1Zm1.8,0a10.06,10.06,0,0,0,.3,2.7,5.44,5.44,0,0,0,.7,1.7,3.18,3.18,0,0,0,1,1,2.55,2.55,0,0,0,2.4,0,2.4,2.4,0,0,0,1-1,5.44,5.44,0,0,0,.7-1.7,12.3,12.3,0,0,0,0-5.4,5.44,5.44,0,0,0-.7-1.7,2.33,2.33,0,0,0-1.1-.9,2.55,2.55,0,0,0-2.4,0,2.84,2.84,0,0,0-1,.9,5.44,5.44,0,0,0-.7,1.7A10.59,10.59,0,0,0,140.4,339.1Z" transform="translate(0 0)"></path><path class="cls-2" d="M150.9,339.1a10.38,10.38,0,0,1,.4-3.2,6.48,6.48,0,0,1,1.1-2.2,4.84,4.84,0,0,1,1.6-1.3,5.2,5.2,0,0,1,4,0,4,4,0,0,1,1.6,1.3,6.48,6.48,0,0,1,1.1,2.2,13,13,0,0,1,0,6.4,6.48,6.48,0,0,1-1.1,2.2,4.84,4.84,0,0,1-1.6,1.3,5.2,5.2,0,0,1-4,0,4.84,4.84,0,0,1-1.6-1.3,6.48,6.48,0,0,1-1.1-2.2A10.38,10.38,0,0,1,150.9,339.1Zm1.7,0a10.06,10.06,0,0,0,.3,2.7,5.44,5.44,0,0,0,.7,1.7,3.18,3.18,0,0,0,1,1,2.55,2.55,0,0,0,2.4,0,3.33,3.33,0,0,0,1.1-1,5.44,5.44,0,0,0,.7-1.7,12.3,12.3,0,0,0,0-5.4,5.44,5.44,0,0,0-.7-1.7,2.33,2.33,0,0,0-1.1-.9,5.27,5.27,0,0,0-1.2-.3,2.66,2.66,0,0,0-1.2.3,2.84,2.84,0,0,0-1,.9,5.44,5.44,0,0,0-.7,1.7A10.06,10.06,0,0,0,152.6,339.1Z" transform="translate(0 0)"></path><path class="cls-2" d="M164.5,335.7l4.2-3.6h1.4v12.6h2.8v1.4h-7.5v-1.4h3V334.3l-2.5,2.1c-.1.1-.1.1-.2.1h-.2a.37.37,0,0,1-.3-.1c-.1,0-.1-.1-.2-.2Z" transform="translate(0 0)"></path><path class="cls-2" d="M186.6,349.4V331.1H188v18.3Z" transform="translate(0 0)"></path><path class="cls-2" d="M201.5,339.1a8.81,8.81,0,0,1,.5-2.9,6.78,6.78,0,0,1,1.4-2.3,8.55,8.55,0,0,1,2.2-1.5,8.68,8.68,0,0,1,2.8-.5,7.63,7.63,0,0,1,2.7.5,8.58,8.58,0,0,1,2,1.3l-.6.9c0,.1-.1.1-.2.2s-.1.1-.3.1a.37.37,0,0,1-.3-.1c-.1-.1-.2-.1-.3-.2a2.19,2.19,0,0,0-.5-.3l-.6-.3a1.88,1.88,0,0,0-.8-.2,3.75,3.75,0,0,0-1.1-.1,4.92,4.92,0,0,0-2.1.4,4.57,4.57,0,0,0-1.6,1.1,5.85,5.85,0,0,0-1,1.7,6.81,6.81,0,0,0,0,4.6,5.45,5.45,0,0,0,1,1.7,4.5,4.5,0,0,0,3.4,1.5,3.75,3.75,0,0,0,1.1-.1,2.92,2.92,0,0,0,.9-.2,3,3,0,0,0,.8-.4c.2-.2.5-.3.7-.6a.5.5,0,0,1,.6,0l.7.8a6.32,6.32,0,0,1-5,2.2,7.63,7.63,0,0,1-2.7-.5,5.11,5.11,0,0,1-2.1-1.5,5.76,5.76,0,0,1-1.3-2.3A27.69,27.69,0,0,1,201.5,339.1Z" transform="translate(0 0)"></path><path class="cls-2" d="M215.9,339.1a9.29,9.29,0,0,1,.5-2.9,6.78,6.78,0,0,1,1.4-2.3,7.12,7.12,0,0,1,2.2-1.5,6.36,6.36,0,0,1,2.8-.5,8.21,8.21,0,0,1,2.8.5,6.62,6.62,0,0,1,2.2,1.5,5.94,5.94,0,0,1,1.4,2.3,8.81,8.81,0,0,1,.5,2.9,9.29,9.29,0,0,1-.5,2.9,6.78,6.78,0,0,1-1.4,2.3,7.12,7.12,0,0,1-2.2,1.5,8.09,8.09,0,0,1-5.6,0,5.41,5.41,0,0,1-2.2-1.5,5.94,5.94,0,0,1-1.4-2.3A6.82,6.82,0,0,1,215.9,339.1Zm1.9,0a5.56,5.56,0,0,0,.4,2.3,4,4,0,0,0,1,1.7,4.57,4.57,0,0,0,1.6,1.1,4.48,4.48,0,0,0,2,.4,4.21,4.21,0,0,0,2-.4,5.72,5.72,0,0,0,1.6-1.1,4.78,4.78,0,0,0,1-1.7,9,9,0,0,0,0-4.6,4,4,0,0,0-1-1.7,4.57,4.57,0,0,0-1.6-1.1,4.48,4.48,0,0,0-2-.4,4.21,4.21,0,0,0-2,.4,5.72,5.72,0,0,0-1.6,1.1,6,6,0,0,0-1.4,4Z" transform="translate(0 0)"></path><path class="cls-2" d="M233.2,346.1v-14h1c.2,0,.3,0,.4.1s.2.1.3.3L243,343V332.1h1.7v14h-1c-.2,0-.3,0-.4-.1s-.2-.1-.3-.3l-8.1-10.5v10.9Z" transform="translate(0 0)"></path><path class="cls-2" d="M247.5,333.7v-1.6h11v1.6H254v12.4h-1.9V333.7Z" transform="translate(0 0)"></path><path class="cls-2" d="M259.8,346.1l5.6-14h1.9l5.6,14h-1.5c-.2,0-.3,0-.4-.1s-.2-.2-.2-.3l-1.3-3.4h-6.3l-1.3,3.4c0,.1-.1.2-.2.3s-.2.1-.4.1Zm4-5.2H269l-2.2-5.7a10.38,10.38,0,0,1-.4-1.3,6.37,6.37,0,0,1-.2.7c-.1.2-.1.4-.2.6Z" transform="translate(0 0)"></path><path class="cls-2" d="M280.7,335.7l4.2-3.6h1.4v12.6h2.8v1.4h-7.5v-1.4h3V334.3l-2.5,2.1c-.1.1-.1.1-.2.1h-.2a.37.37,0,0,1-.3-.1c-.1,0-.1-.1-.2-.2Z" transform="translate(0 0)"></path><path class="cls-2" d="M291.6,339.1a10.38,10.38,0,0,1,.4-3.2,6.48,6.48,0,0,1,1.1-2.2,4.84,4.84,0,0,1,1.6-1.3,5.2,5.2,0,0,1,4,0,4,4,0,0,1,1.6,1.3,6.48,6.48,0,0,1,1.1,2.2,13,13,0,0,1,0,6.4,6.48,6.48,0,0,1-1.1,2.2,4.84,4.84,0,0,1-1.6,1.3,5.2,5.2,0,0,1-4,0,4.84,4.84,0,0,1-1.6-1.3,6.48,6.48,0,0,1-1.1-2.2A10.38,10.38,0,0,1,291.6,339.1Zm1.8,0a10.06,10.06,0,0,0,.3,2.7,5.44,5.44,0,0,0,.7,1.7,3.18,3.18,0,0,0,1,1,2.55,2.55,0,0,0,2.4,0,2.4,2.4,0,0,0,1-1,5.44,5.44,0,0,0,.7-1.7,12.3,12.3,0,0,0,0-5.4,5.44,5.44,0,0,0-.7-1.7,2.33,2.33,0,0,0-1.1-.9,2.55,2.55,0,0,0-2.4,0,2.84,2.84,0,0,0-1,.9,5.44,5.44,0,0,0-.7,1.7A18.7,18.7,0,0,0,293.4,339.1Z" transform="translate(0 0)"></path><path class="cls-2" d="M305.3,335.7l4.2-3.6h1.4v12.6h2.8v1.4h-7.5v-1.4h3V334.3l-2.5,2.1c-.1.1-.1.1-.2.1h-.2a.37.37,0,0,1-.3-.1c-.1,0-.1-.1-.2-.2Z" transform="translate(0 0)"></path><path class="cls-2" d="M316.6,346.1v-.6a2,2,0,0,1,.3-.8l4.5-4.5a10,10,0,0,0,1-1.1,7.63,7.63,0,0,0,.8-1.1,5.36,5.36,0,0,0,.5-1.1,4.3,4.3,0,0,0,.2-1.2,3.59,3.59,0,0,0-.2-1.1,2.1,2.1,0,0,0-1.3-1.3,2.6,2.6,0,0,0-2,0,5.94,5.94,0,0,0-.8.4,4.35,4.35,0,0,0-.6.7,1.33,1.33,0,0,0-.3.8c-.1.2-.1.3-.2.4s-.2.1-.4.1h-.2l-.9-.2a8.45,8.45,0,0,1,.5-1.7,4,4,0,0,1,1-1.2,6.38,6.38,0,0,1,1.4-.8,4.67,4.67,0,0,1,1.7-.3,5.08,5.08,0,0,1,1.7.3,2.87,2.87,0,0,1,1.3.8,2.73,2.73,0,0,1,.9,1.2,4.15,4.15,0,0,1,.3,1.6,5.9,5.9,0,0,1-.2,1.4c-.2.4-.4.9-.6,1.3l-.9,1.2c-.4.4-.7.8-1.1,1.2l-3.7,3.8c.3-.1.5-.1.8-.2s.5-.1.8-.1h4.7a.52.52,0,0,1,.4.2.76.76,0,0,1,.2.4v1.1h-9.6Z" transform="translate(0 0)"></path><path class="cls-2" d="M328.9,342.6l.7-.3a.6.6,0,0,1,.4-.1.37.37,0,0,1,.3.1c.1.1.2.1.2.3v.2l.3.6a3,3,0,0,0,.5.7,2.18,2.18,0,0,0,.8.5,3.73,3.73,0,0,0,1.2.2,5.07,5.07,0,0,0,1.3-.2,3.49,3.49,0,0,0,.9-.6,2.62,2.62,0,0,0,.5-.9,3.71,3.71,0,0,0,.2-.9c0-.4-.1-.7-.1-1a2.18,2.18,0,0,0-.5-.8,2.26,2.26,0,0,0-1.1-.5,9,9,0,0,0-1.8-.2v-1.3a6.05,6.05,0,0,0,1.5-.2,2.34,2.34,0,0,0,1-.5,1.56,1.56,0,0,0,.6-.8,3,3,0,0,0,.2-1,3.59,3.59,0,0,0-.2-1.1,1.28,1.28,0,0,0-.5-.7,2,2,0,0,0-.8-.4,3.08,3.08,0,0,0-1-.1,3,3,0,0,0-1,.2,5.94,5.94,0,0,0-.8.4,4.35,4.35,0,0,0-.6.7,1.33,1.33,0,0,0-.3.8c-.1.2-.1.3-.2.4s-.2.1-.4.1H330l-.9-.2a8.45,8.45,0,0,1,.5-1.7,4,4,0,0,1,1-1.2,6.38,6.38,0,0,1,1.4-.8,4.67,4.67,0,0,1,1.7-.3,4.15,4.15,0,0,1,1.6.3,5.39,5.39,0,0,1,1.3.7,3.13,3.13,0,0,1,.9,1.1,3.34,3.34,0,0,1,.3,1.5,5,5,0,0,1-.2,1.2,2.62,2.62,0,0,1-.5.9,2.7,2.7,0,0,1-.8.7,3,3,0,0,1-1,.4,3.12,3.12,0,0,1,2,1.2,3.77,3.77,0,0,1,.7,2.1,3.29,3.29,0,0,1-.4,1.7,3.25,3.25,0,0,1-1,1.3,3.61,3.61,0,0,1-1.5.8,5.66,5.66,0,0,1-1.8.3,5.41,5.41,0,0,1-1.9-.3,2.87,2.87,0,0,1-1.3-.8,2.73,2.73,0,0,1-.9-1.2A2.4,2.4,0,0,0,328.9,342.6Z" transform="translate(0 0)"></path><path class="cls-2" d="M341.1,341v-1.5h4.8V341Z" transform="translate(0 0)"></path><path class="cls-2" d="M348.3,341.1l6.8-9h1.6V341h2.1v1a.35.35,0,0,1-.4.4h-1.7v3.7h-1.6v-3.7H349a.37.37,0,0,1-.3-.1c-.1-.1-.2-.2-.2-.3Zm1.9,0h5v-6.3a1.27,1.27,0,0,1,.1-.6Z" transform="translate(0 0)"></path></g><path class="cls-7" d="M75,142.1c-4.6,0-8.2,2.9-8.2,6.5v39c0,3.6,3.7,6.5,8.2,6.5h49.4c4.6,0,8.2-2.9,8.2-6.5v-39c0-3.6-3.7-6.5-8.2-6.5Z" transform="translate(0 0)"></path><path class="cls-8" d="M75,142.1c-4.6,0-8.2,2.9-8.2,6.5v39c0,3.6,3.7,6.5,8.2,6.5h49.4c4.6,0,8.2-2.9,8.2-6.5v-39c0-3.6-3.7-6.5-8.2-6.5Z" transform="translate(0 0)"></path><g id="Name-2" data-name="Name" class="cls-5"><path class="cls-2" d="M28.8,304.1a8.81,8.81,0,0,1,.6-3.3,7.16,7.16,0,0,1,1.6-2.5,6,6,0,0,1,2.5-1.6,8.29,8.29,0,0,1,3.2-.6,8.53,8.53,0,0,1,3,.5,6.62,6.62,0,0,1,2.2,1.5l-.7,1-.2.2c-.1,0-.2.1-.3.1a.37.37,0,0,1-.3-.1,1.38,1.38,0,0,0-.4-.3,2.19,2.19,0,0,0-.5-.3,4.88,4.88,0,0,0-.7-.3l-.9-.3a4.87,4.87,0,0,0-1.2-.1,5.87,5.87,0,0,0-2.3.4,5.67,5.67,0,0,0-1.8,1.2,5.61,5.61,0,0,0-1.2,2,7.1,7.1,0,0,0-.4,2.6,6.77,6.77,0,0,0,.4,2.6,6.66,6.66,0,0,0,1.2,2,6.57,6.57,0,0,0,1.7,1.2,5.38,5.38,0,0,0,2.2.4,5.28,5.28,0,0,0,1.3-.1,2.93,2.93,0,0,0,1-.3c.3-.1.6-.3.9-.4a5.55,5.55,0,0,0,.8-.6.52.52,0,0,1,.4-.2.37.37,0,0,1,.3.1l.8.9a6.58,6.58,0,0,1-2.3,1.7,8.11,8.11,0,0,1-3.3.6,7.66,7.66,0,0,1-5.5-2.2,6.44,6.44,0,0,1-1.5-2.5A8.81,8.81,0,0,1,28.8,304.1Z" transform="translate(0 0)"></path><path class="cls-2" d="M44.1,311.9l6.3-15.7h2.2l6.3,15.7H57.3a.9.9,0,0,1-.5-.1,1.38,1.38,0,0,1-.3-.4L55,307.6H47.9l-1.5,3.8c-.1.1-.1.2-.3.4a.76.76,0,0,1-.5.2H44.1Zm4.4-5.8h5.9l-2.5-6.4a13.08,13.08,0,0,1-.5-1.5,3.09,3.09,0,0,0-.2.8,2.54,2.54,0,0,0-.2.7Z" transform="translate(0 0)"></path><path class="cls-2" d="M62.1,311.9V296.2h4.5a9.78,9.78,0,0,1,2.6.3,5.08,5.08,0,0,1,1.8.9,3.81,3.81,0,0,1,1.1,1.4,4.84,4.84,0,0,1,.3,1.8,4.15,4.15,0,0,1-.3,1.6,3.53,3.53,0,0,1-.8,1.3,4,4,0,0,1-1.2,1,4.42,4.42,0,0,1-1.6.6,2.34,2.34,0,0,1,.7.7l4.6,6.3H71.9a.87.87,0,0,1-.9-.5L66.9,306c-.1-.2-.3-.3-.4-.4s-.4-.1-.7-.1H64.2v6.6H62.1Zm2.1-8.1h2.2a7,7,0,0,0,1.6-.2,6.66,6.66,0,0,0,1.2-.6,1.83,1.83,0,0,0,.7-1,2.74,2.74,0,0,0,.2-1.3,2.58,2.58,0,0,0-.9-2.1,4.28,4.28,0,0,0-2.8-.7H64.1v5.9Z" transform="translate(0 0)"></path><path class="cls-2" d="M77.1,311.9V296.2H83a8.29,8.29,0,0,1,3.2.6,6.74,6.74,0,0,1,2.4,1.6,7.16,7.16,0,0,1,1.6,2.5,8.83,8.83,0,0,1,0,6.4,7.16,7.16,0,0,1-1.6,2.5,7.76,7.76,0,0,1-2.4,1.6,7.94,7.94,0,0,1-3.2.6H77.1Zm2.1-1.7H83a5.87,5.87,0,0,0,2.3-.4,5.67,5.67,0,0,0,1.8-1.2,4.53,4.53,0,0,0,1.1-1.9,8.65,8.65,0,0,0,0-5.2,5,5,0,0,0-1.1-1.9,5.67,5.67,0,0,0-1.8-1.2A5.87,5.87,0,0,0,83,298H79.3v12.2Z" transform="translate(0 0)"></path><path class="cls-2" d="M94.8,311.9V296.2h2.1v7h8.5v-7h2.1v15.7h-2.1v-7.2H96.9v7.2Z" transform="translate(0 0)"></path><path class="cls-2" d="M111.6,304.1a7.94,7.94,0,0,1,.6-3.2,7.16,7.16,0,0,1,1.6-2.5,8.07,8.07,0,0,1,2.4-1.7,8.83,8.83,0,0,1,6.4,0,6.14,6.14,0,0,1,2.4,1.7,8.21,8.21,0,0,1,1.6,2.5,8.66,8.66,0,0,1,.6,3.2,7.94,7.94,0,0,1-.6,3.2,7.16,7.16,0,0,1-1.6,2.5,6.33,6.33,0,0,1-2.4,1.6,8.83,8.83,0,0,1-6.4,0,6,6,0,0,1-2.4-1.6,10.68,10.68,0,0,1-1.6-2.5A6.78,6.78,0,0,1,111.6,304.1Zm2.1,0a7.1,7.1,0,0,0,.4,2.6,5,5,0,0,0,1.1,1.9,5.67,5.67,0,0,0,1.8,1.2,6.81,6.81,0,0,0,4.6,0,5.67,5.67,0,0,0,1.8-1.2,4.53,4.53,0,0,0,1.1-1.9,8.65,8.65,0,0,0,0-5.2,5,5,0,0,0-1.1-1.9,5.67,5.67,0,0,0-1.8-1.2,6.81,6.81,0,0,0-4.6,0,5.67,5.67,0,0,0-1.8,1.2,4.53,4.53,0,0,0-1.1,1.9A10.13,10.13,0,0,0,113.7,304.1Z" transform="translate(0 0)"></path><path class="cls-2" d="M131.1,311.9V296.2h2.1v13.9H140v1.8Z" transform="translate(0 0)"></path><path class="cls-2" d="M143.4,311.9V296.2h5.9a8.29,8.29,0,0,1,3.2.6,6.74,6.74,0,0,1,2.4,1.6,7.16,7.16,0,0,1,1.6,2.5,8.83,8.83,0,0,1,0,6.4,7.16,7.16,0,0,1-1.6,2.5,7.76,7.76,0,0,1-2.4,1.6,7.94,7.94,0,0,1-3.2.6h-5.9Zm2.2-1.7h3.7a5.87,5.87,0,0,0,2.3-.4,5.67,5.67,0,0,0,1.8-1.2,4.53,4.53,0,0,0,1.1-1.9,8.65,8.65,0,0,0,0-5.2,5,5,0,0,0-1.1-1.9,5.67,5.67,0,0,0-1.8-1.2,5.87,5.87,0,0,0-2.3-.4h-3.7Z" transform="translate(0 0)"></path><path class="cls-2" d="M161.1,311.9V296.2h9.7v1.7h-7.6v5.2h6.1v1.7h-6.1v5.4h7.6v1.7Z" transform="translate(0 0)"></path><path class="cls-2" d="M175.1,311.9V296.2h4.5a9.78,9.78,0,0,1,2.6.3,5.08,5.08,0,0,1,1.8.9,3.81,3.81,0,0,1,1.1,1.4,4.84,4.84,0,0,1,.3,1.8,4.15,4.15,0,0,1-.3,1.6,3.53,3.53,0,0,1-.8,1.3,4,4,0,0,1-1.2,1,4.42,4.42,0,0,1-1.6.6,2.34,2.34,0,0,1,.7.7l4.6,6.3h-1.9a.87.87,0,0,1-.9-.5l-4.1-5.6c-.1-.2-.3-.3-.4-.4s-.4-.1-.7-.1h-1.6v6.6h-2.1Zm2.2-8.1h2.2a7,7,0,0,0,1.6-.2,6.66,6.66,0,0,0,1.2-.6,1.83,1.83,0,0,0,.7-1,2.74,2.74,0,0,0,.2-1.3,2.58,2.58,0,0,0-.9-2.1,4.28,4.28,0,0,0-2.8-.7h-2.3v5.9Z" transform="translate(0 0)"></path><path class="cls-2" d="M195.5,311.9V296.2h1.1c.2,0,.3,0,.4.1s.2.1.3.3l9.1,11.9V296.3h1.9V312h-1.1c-.2,0-.3,0-.4-.1l-.3-.3-9.1-11.8V312h-1.9Z" transform="translate(0 0)"></path><path class="cls-2" d="M211.4,311.9l6.3-15.7h2.2l6.3,15.7h-1.6a.9.9,0,0,1-.5-.1,1.38,1.38,0,0,1-.3-.4l-1.5-3.8h-7.1l-1.5,3.8c-.1.1-.1.2-.3.4a.76.76,0,0,1-.5.2h-1.5Zm4.4-5.8h5.9l-2.5-6.4a13.08,13.08,0,0,1-.5-1.5,3.09,3.09,0,0,0-.2.8,2.54,2.54,0,0,0-.2.7Z" transform="translate(0 0)"></path><path class="cls-2" d="M229.2,311.9V296.2h1.6c.2,0,.3,0,.4.1s.2.1.3.3l5.4,9.7.3.6a1.42,1.42,0,0,1,.2.6c.1-.2.1-.4.2-.6l.3-.6,5.3-9.7q.15-.3.3-.3c.1,0,.3-.1.4-.1h1.6v15.7h-1.9V299.3l-5.4,9.8a.89.89,0,0,1-.8.5h-.3a1,1,0,0,1-.8-.5l-5.5-9.9v12.7Z" transform="translate(0 0)"></path><path class="cls-2" d="M250.5,311.9V296.2h9.7v1.7h-7.6v5.2h6.1v1.7h-6.1v5.4h7.6v1.7Z" transform="translate(0 0)"></path></g><g class="cls-5"><line class="cls-9" x1="28.8" y1="304.1" x2="260.2" y2="304.1"></line><line class="cls-9" x1="28.8" y1="340.2" x2="170.1" y2="340.2"></line><line class="cls-9" x1="202.4" y1="340.2" x2="343.7" y2="340.2"></line><line class="cls-9" x1="459.2" y1="209.5" x2="492.1" y2="209.5"></line><line class="cls-9" x1="522.6" y1="209.5" x2="568.4" y2="209.5"></line><line class="cls-9" x1="459.2" y1="233.2" x2="492.1" y2="233.2"></line><line class="cls-9" x1="522.6" y1="233.2" x2="568.4" y2="233.2"></line></g></svg> 