<?xml version="1.0" encoding="UTF-8"?> <svg xmlns="http://www.w3.org/2000/svg" viewBox="0 0 1200 1200"><title>illustration-11-b</title><rect width="1200" height="1200" style="fill: none"></rect><g><path d="M71.7,1085.089a80.43,80.43,0,0,0,59.1,27.8c45.2,1.3,234.1,1.1,332.3.9-31.1-3.5-66.9-12.1-87.7-32.3-6.4-6.2-12.7-12.5-18.8-18.6-35.8-36-64.9-65.2-93.7-50.1a49.986,49.986,0,0,0-10.6,7.6c-5.1,4.7-8.8,7.8-12.7,7.2-4.8-.7-9.4-6.8-17.8-20.4-27.8-44.9-66.1-65.5-105.1-56.6-34.4,7.9-62.9,37.7-66.2,69.4a85.772,85.772,0,0,0,21.2,65.1Z" transform="translate(0 0)" style="fill: #fff"></path><path d="M638.6,995.789c16.8,0,102.1.6,200.8,1.3l88.4.6c84.6.6,168.7,1.1,222.2,1.4-2.7-.2-5.6-.5-8.4-.7a10.869,10.869,0,0,0-1.8-.1c-53.1-4.8-123.7-17.5-159.9-50.3-8-7.2-15.2-14.3-21.8-20.9l-5.4-5.4c-19-19.2-32.8-33-46-33a18.581,18.581,0,0,0-9.2,2.4,37.362,37.362,0,0,0-8.4,6.4,22.549,22.549,0,0,1-17.1,8.9c-6.6-.5-13.3-6-22.2-18.2-17.1-23.6-30.6-34.7-43.8-36a32.926,32.926,0,0,0-25.7,10.6c-6.3,5.8-11.1,9.8-16.2,9.2-6.5-.8-13-9.1-25.9-28.3v-.1c-2.5-3.6-5.1-7.6-8.1-12.1-2.3-3.4-4.7-7-7.3-10.9a96.236,96.236,0,0,0-74.1-42.9,115.513,115.513,0,0,0-87.7,34c-2.8,2.7-5.5,5.4-8.1,8.3a82.407,82.407,0,0,0-19,39.1,80.989,80.989,0,0,0-1.3,8.6v.1a117.341,117.341,0,0,0,10.5,59.8C565.8,977.789,607.3,995.789,638.6,995.789Z" transform="translate(0 0)" style="fill: #fff"></path><g><path d="M675.022,169.789c47.2-78.5,144.1-106.9,216.5-63.4s92.8,142.5,45.7,221c-47.2,78.5-144.1,106.9-216.5,63.4S627.822,248.289,675.022,169.789Z" transform="translate(0 0)" style="fill: #00a0a0"></path><path d="M961.622,256.189a176.1,176.1,0,0,1-24.3,71c-47.1,78.6-144.2,107-216.5,63.5s-93-142.5-45.8-221.1a175.259,175.259,0,0,1,71.6-66.8c-6.9,59.9,18.4,119.2,70,150.1a149.316,149.316,0,0,0,145,3.3Z" transform="translate(0 0)" style="opacity: 0.05000000074505806;isolation: isolate"></path></g><g><path d="M680.608,958.5l-71.2,99.6-2.1,2.6c-22,26.4-83,38.5-129.3,21.8-46-16.4-84.3-56.5-85.4-90.9v-3.9l5.3-94.6,1.9-34.2c1.6,25.4,21.6,53.5,53.5,76.7a265.25,265.25,0,0,0,136.3,49.1C629.908,987.3,663.708,978,680.608,958.5Z" transform="translate(0 0)" style="fill: #00a0a0"></path><path d="M568.908,1019l-176.1-27.6v-3.9l5.3-94.6C468.808,994.6,548.908,1015.4,568.908,1019Z" transform="translate(0 0)" style="opacity: 0.05000000074505806;isolation: isolate"></path><ellipse cx="546.222" cy="891.312" rx="83.103" ry="152.706" transform="translate(-477.681 1102.07) rotate(-70.13)" style="fill: #00a0a0"></ellipse><g><path d="M536.728,1030.876a39.809,39.809,0,1,1,3.2-30.5A40.452,40.452,0,0,1,536.728,1030.876Z" transform="translate(0 0)" style="fill: #ffc800"></path><path d="M506.428,1011.976l-.1-.1-7.6-4.1a7.551,7.551,0,0,1-4.5-6.1,5,5,0,0,1,2.5-4.6,7.653,7.653,0,0,1,7.6.4l4.4,2.4h0l9.5,5.1a1.2,1.2,0,0,0,1.6-.6,1.191,1.191,0,0,0-.5-1.6h0l-8.4-4.5,3.7-6.9a1.165,1.165,0,0,0-.5-1.6h0a1.31,1.31,0,0,0-1.7.5l-3.7,6.9-3.4-1.8a9.939,9.939,0,0,0-10-.3,7.931,7.931,0,0,0-3.7,6.8,9.869,9.869,0,0,0,5.8,8.2l7.6,4.1.1.1a7.026,7.026,0,0,1,3.6,9.3c-.1.2-.2.3-.3.5a6.912,6.912,0,0,1-9.3,2.8c-.2-.1-.5-.3-.7-.4l-3.1-1.7h0l-11.1-6a1.2,1.2,0,0,0-1.6.6,1.191,1.191,0,0,0,.5,1.6h0l10,5.4-3.7,6.9a1.165,1.165,0,0,0,.5,1.6h0a1.31,1.31,0,0,0,1.7-.5l3.7-6.9,2.1,1.1a9.333,9.333,0,0,0,12.9-2.6,5.582,5.582,0,0,0,.5-.8,9.53,9.53,0,0,0-3.8-12.9c-.3-.2-.4-.3-.6-.3Z" transform="translate(0 0)" style="fill: #fff"></path><path d="M522.728,1045.776a40,40,0,0,1-49.3-62.4Z" transform="translate(0 0)" style="opacity: 0.05000000074505806;isolation: isolate"></path></g><g><path d="M386.008,960.51c8,2.8,19.1,4.5,25.5-2.4a31.792,31.792,0,0,0,7.1-13.3c4.7-16.9-1.6-36.8-14-44.5l-13.4-6-8.8,65" transform="translate(0 0)" style="fill: #ff833a"></path><path d="M410.508,941.21a32.406,32.406,0,0,1-7.1,13.3,18.059,18.059,0,0,1-23.8,3.4c-12.4-7.7-18.7-27.6-14-44.5a36.39,36.39,0,0,1,3.5-8.4,18.928,18.928,0,0,1,25.1-9.5c.8.4,1.6.8,2.4,1.3C409.008,904.41,415.208,924.41,410.508,941.21Z" transform="translate(0 0)" style="fill: #ffc800"></path><path d="M391.008,927.11h0l-4.9-3a6.767,6.767,0,0,1-3.2-4.9,5.245,5.245,0,0,1,1.1-4,3.368,3.368,0,0,1,4.5-.1l2.8,1.7h0l6,3.8a.608.608,0,0,0,.9-.5,1.249,1.249,0,0,0-.4-1.3h0l-5.4-3.3,1.7-6a1.249,1.249,0,0,0-.4-1.3h0a.608.608,0,0,0-.9.5l-1.7,6-2.1-1.3a4.571,4.571,0,0,0-6,.3,7.018,7.018,0,0,0-1.6,5.9,8.7,8.7,0,0,0,4.1,6.5l4.8,3h.1a7.416,7.416,0,0,1,2.7,8.1c-.7,2.6-2.8,4.4-5.8,2.5l-2-1.2h0l-7.1-4.4a.608.608,0,0,0-.9.5,1.249,1.249,0,0,0,.4,1.3h0l6.4,4-1.7,6a1.249,1.249,0,0,0,.4,1.3h0a.608.608,0,0,0,.9-.5l1.7-6,1.3.8c3.9,2.4,6.7-.1,7.6-3.6a9.173,9.173,0,0,0-3.3-10.8Z" transform="translate(0 0)" style="fill: #fff"></path><path d="M403.408,954.51a18.059,18.059,0,0,1-23.8,3.4c-12.4-7.7-18.7-27.6-14-44.5a36.39,36.39,0,0,1,3.5-8.4Z" transform="translate(0 0)" style="opacity: 0.05000000074505806;isolation: isolate"></path></g><g><path d="M625.484,1046.1c-8.8-1.2-20-4.8-23.1-13.9a30.52,30.52,0,0,1-.9-15.3c2.9-17.3,17.6-32.4,32.7-33.6l15.2.8-20.2,62.6" transform="translate(0 0)" style="fill: #ff833a"></path><path d="M610.684,1017.4a31.769,31.769,0,0,0,.9,15.3,19.791,19.791,0,0,0,21,14c15.1-1.2,29.8-16.2,32.7-33.6a35.325,35.325,0,0,0,.4-9.2,20.6,20.6,0,0,0-20.8-20.2,7.569,7.569,0,0,0-1.5.1C628.284,985,613.584,1000.1,610.684,1017.4Z" transform="translate(0 0)" style="fill: #ffc800"></path><path d="M641.984,1016.1h0l-5.3-2.2a5.536,5.536,0,0,1-3.5-4.3,5.725,5.725,0,0,1,1.1-4.2,3.975,3.975,0,0,1,4.8-.9l3,1.3h0l6.5,2.7c.4.2.8-.1,1-.7a1.027,1.027,0,0,0-.5-1.3h0l-5.8-2.4,1.6-6.2a1.027,1.027,0,0,0-.5-1.3h0c-.4-.2-.8.1-1,.7l-1.6,6.2-2.3-1a5.185,5.185,0,0,0-6.3,1.3,7.447,7.447,0,0,0-1.6,6.1,7.116,7.116,0,0,0,4.5,5.8l5.2,2.2h.1a6.14,6.14,0,0,1,3.1,7.5,4.442,4.442,0,0,1-4.8,3.9,6.107,6.107,0,0,1-1.3-.3l-2.1-.9h0l-7.6-3.2c-.4-.2-.8.1-1,.7a1.027,1.027,0,0,0,.5,1.3h0l6.9,2.9-1.6,6.2a1.027,1.027,0,0,0,.5,1.3h0c.4.2.8-.1,1-.7l1.6-6.2,1.4.6c4.2,1.7,7.1-1.3,8.1-4.8A8.365,8.365,0,0,0,641.984,1016.1Z" transform="translate(0 0)" style="fill: #fff"></path><path d="M611.584,1032.6a19.791,19.791,0,0,0,21,14c15.1-1.2,29.8-16.2,32.7-33.6a35.325,35.325,0,0,0,.4-9.2Z" transform="translate(0 0)" style="opacity: 0.05000000074505806;isolation: isolate"></path></g><path d="M391.008,871.4c-15.4,43.2,34.7,105.8,114.1,134.4s157.9,12.4,173.3-30.9l11.5-31.8-287.4-103.5Z" transform="translate(0 0)" style="fill: #00a0a0"></path><path d="M689.908,943.1c-9.2,25.6-39.8,40.2-79.8,41.9a260.659,260.659,0,0,1-170.5-60.3c-31.1-27.2-46.4-58.9-37.1-85,15.4-43.2,92.3-55.1,171.6-26.5S705.308,899.9,689.908,943.1Z" transform="translate(0 0)" style="opacity: 0.05000000074505806;isolation: isolate"></path><path d="M622.808,966.3a46.191,46.191,0,0,1-12.7,18.7,260.659,260.659,0,0,1-170.5-60.3,45.757,45.757,0,0,1,1.9-23.5c12.1-33.7,62.5-46.5,112.6-28.5C604.008,890.5,634.808,932.6,622.808,966.3Z" transform="translate(0 0)" style="fill: #008282"></path><path d="M572.408,1019.6l-2.9-.4A21.638,21.638,0,0,0,572.408,1019.6Z" transform="translate(0 0)" style="opacity: 0.05000000074505806;isolation: isolate"></path></g><g><path d="M456.923,184.9c47.2-78.5,144.1-106.9,216.5-63.4s92.8,142.5,45.7,221c-47.2,78.5-144.1,106.9-216.5,63.4S409.723,263.5,456.923,184.9Z" transform="translate(0 0)" style="fill: #00a0a0"></path><path d="M738.523,297.2a177.065,177.065,0,0,1-19.3,45.2c-47.1,78.5-144.2,107-216.5,63.5s-92.8-142-46.2-220.5c-18.5,68.1,6,140.5,65.1,175.9,72.4,43.5,169.4,15.1,216.5-63.5A2.092,2.092,0,0,1,738.523,297.2Z" transform="translate(0 0)" style="opacity: 0.05000000074505806;isolation: isolate"></path></g><g><path d="M374,390.307c47.2-78.6,144.1-107,216.5-63.4s92.8,142.5,45.7,221c-47.2,78.5-144.1,106.9-216.5,63.4S326.8,468.807,374,390.307Z" transform="translate(0 0)" style="fill: #00a0a0"></path><path d="M647.5,525.707a183.227,183.227,0,0,1-11.2,22.1c-47.1,78.5-144.1,107-216.5,63.5s-93-142.5-45.8-221.1a185.138,185.138,0,0,1,14.4-20.6c-31.7,74.2-8.8,159.5,57,199C510.9,608.007,596.8,588.407,647.5,525.707Z" transform="translate(0 0)" style="opacity: 0.05000000074505806;isolation: isolate"></path></g><g><path d="M812.781,359.988c47.2-78.5,144.1-106.9,216.5-63.4s92.8,142.5,45.7,221-144.1,107-216.5,63.4S765.581,438.588,812.781,359.988Z" transform="translate(0 0)" style="fill: #00a0a0"></path><path d="M1048.881,551.088a169.647,169.647,0,0,1-52.6,36.5c-72.9,34.6-160.2,3.6-194.8-69.4a146.008,146.008,0,0,1-14.1-66.6,177.682,177.682,0,0,1,87.4-153.4,178.575,178.575,0,0,0-51.1,115.9,23.227,23.227,0,0,0,22.5,23.9h1.6a142.936,142.936,0,0,1,77.3,20.4,145.446,145.446,0,0,1,65.8,89.2,23.171,23.171,0,0,0,28.1,17.1c.6-.2,1.3-.3,1.9-.5A169.893,169.893,0,0,0,1048.881,551.088Z" transform="translate(0 0)" style="opacity: 0.05000000074505806;isolation: isolate"></path></g><g><path d="M843.846,455a126.894,126.894,0,0,1-172,50.9c-61.6-33.4-84.3-110.4-50.9-172s110.4-84.3,172-50.9a126.757,126.757,0,0,1,50.9,172Z" transform="translate(0 0)" style="fill: #ffc800"></path><path d="M747.746,394.7l-.4-.2-24-13a23.839,23.839,0,0,1-14.3-19.4,16.381,16.381,0,0,1,8-14.7,23.731,23.731,0,0,1,24,1.3l14,7.6h0l30.2,16.3a3.872,3.872,0,0,0,3.7-6.8h0l-26.8-14.5,11.9-22a3.819,3.819,0,0,0-1.6-5.2h0a3.819,3.819,0,0,0-5.2,1.6h0l-11.9,22-10.6-5.8a31.246,31.246,0,0,0-31.8-1,24.656,24.656,0,0,0-11.6,21.5,31.166,31.166,0,0,0,18.3,26l24,13,.3.2a22.443,22.443,0,0,1,11.2,29.7,10.93,10.93,0,0,1-.8,1.5c-5.1,9.5-17,15.5-31.8,7.5l-9.9-5.4h0l-35.3-19.1a3.872,3.872,0,0,0-3.7,6.8h0l31.9,17.3-11.8,21.9a3.872,3.872,0,0,0,1.5,5.2h0a3.961,3.961,0,0,0,5.3-1.6l11.9-22,6.6,3.5c19.5,10.5,35.6,1.8,42.3-10.6a30.253,30.253,0,0,0-12-41,4.418,4.418,0,0,1-1.6-.6Z" transform="translate(0 0)" style="fill: #fff"></path><path d="M799.446,502.3a127.2,127.2,0,0,1-156.7-198.5Z" transform="translate(0 0)" style="opacity: 0.05000000074505806;isolation: isolate"></path></g><g><path d="M690.972,543.207c47.2-78.5,144.1-106.9,216.5-63.4s92.8,142.5,45.7,221c-47.2,78.5-144.1,106.9-216.5,63.4S643.772,621.807,690.972,543.207Z" transform="translate(0 0)" style="fill: #00a0a0"></path><path d="M885.972,765.307a150.381,150.381,0,0,1-149.3-1.1,138.272,138.272,0,0,1-29.6-23.7c-47.5-49.7-56-130.8-16.1-197.3a175.633,175.633,0,0,1,56.4-58.3c2.3,2.4,4.5,4.9,6.5,7.4,41.7,50.2,47.6,126.7,9.6,189.9-1.8,3-3.7,5.9-5.6,8.8a41.853,41.853,0,0,0,9.6,58.3l1.8,1.2.4.3a146.782,146.782,0,0,0,116.3,14.5Z" transform="translate(0 0)" style="opacity: 0.05000000074505806;isolation: isolate"></path></g><g><path d="M477.3,522.308c47.2-78.5,144.1-106.9,216.5-63.4s92.8,142.5,45.7,221-144.1,106.9-216.5,63.4S430.2,600.908,477.3,522.308Z" transform="translate(0 0)" style="fill: #00a0a0"></path><path d="M745,669.708c-1.7,3.2-3.4,6.5-5.4,9.7-47.2,78.6-144.2,107-216.6,63.5s-92.9-142.4-45.7-221a179.716,179.716,0,0,1,35-42.2c-39.6,73.4-22.1,163.3,43.1,207.4C613.5,726.408,691,717.308,745,669.708Z" transform="translate(0 0)" style="opacity: 0.05000000074505806;isolation: isolate"></path></g><line x1="612.099" y1="974.489" x2="747.199" y2="769.089" style="fill: none;stroke: #008282;stroke-miterlimit: 10;stroke-width: 2.5510001182556152px"></line><line x1="444.099" y1="917.589" x2="425.999" y2="610.489" style="fill: none;stroke: #008282;stroke-miterlimit: 10;stroke-width: 2.5510001182556152px"></line><line x1="558.999" y1="758.289" x2="518.599" y2="960.989" style="fill: none;stroke: #008282;stroke-miterlimit: 10;stroke-width: 2.5510001182556152px"></line><g><g><path d="M508.826,511.218a150.717,150.717,0,0,1,50.1-38.8" transform="translate(0 0)" style="fill: none;stroke: #00d7d7;stroke-linecap: round;stroke-linejoin: round;stroke-width: 2.5510001182556152px"></path><line x1="498.026" y1="525.618" x2="498.026" y2="525.618" style="fill: none;stroke: #00d7d7;stroke-linecap: round;stroke-linejoin: round;stroke-width: 1.2910000085830688px"></line></g><g><path d="M388.106,413.551c1.6-3.1,3.3-6.1,5.1-9.2a148.986,148.986,0,0,1,104.8-71.8" transform="translate(0 0)" style="fill: none;stroke: #00d7d7;stroke-linecap: round;stroke-linejoin: round;stroke-width: 2.5510001182556152px"></path><line x1="380.506" y1="430.851" x2="380.506" y2="430.851" style="fill: none;stroke: #00d7d7;stroke-linecap: round;stroke-linejoin: round;stroke-width: 1.2910000085830688px"></line></g><g><path d="M474.161,204.945c1.6-3.1,3.3-6.2,5.1-9.2,36-60,105.3-86.5,164.4-66.8" transform="translate(0 0)" style="fill: none;stroke: #00d7d7;stroke-linecap: round;stroke-linejoin: round;stroke-width: 2.5510001182556152px"></path><line x1="466.561" y1="222.245" x2="466.561" y2="222.245" style="fill: none;stroke: #00d7d7;stroke-linecap: round;stroke-linejoin: round;stroke-width: 1.2910000085830688px"></line></g><g><path d="M739.4,130.453a135.638,135.638,0,0,1,117.3-17.4" transform="translate(0 0)" style="fill: none;stroke: #00d7d7;stroke-linecap: round;stroke-linejoin: round;stroke-width: 2.5510001182556152px"></path><line x1="726.395" y1="140.053" x2="726.395" y2="140.053" style="fill: none;stroke: #00d7d7;stroke-linecap: round;stroke-linejoin: round;stroke-width: 1.2910000085830688px"></line></g><g><path d="M888.454,326.737a142.518,142.518,0,0,1,69.9-24" transform="translate(0 0)" style="fill: none;stroke: #00d7d7;stroke-linecap: round;stroke-linejoin: round;stroke-width: 2.5510001182556152px"></path><line x1="876.254" y1="335.837" x2="876.254" y2="335.837" style="fill: none;stroke: #00d7d7;stroke-linecap: round;stroke-linejoin: round;stroke-width: 1.2910000085830688px"></line></g><path d="M742.606,621.053a157.542,157.542,0,0,1-19.1,48.7,146.866,146.866,0,0,1-135.4,73.2" transform="translate(0 0)" style="fill: none;stroke: #00d7d7;stroke-linecap: round;stroke-linejoin: round;stroke-width: 2.5510001182556152px"></path><path d="M963.606,613.353a154.679,154.679,0,0,1-22.2,77.2,146.593,146.593,0,0,1-135.4,73.1" transform="translate(0 0)" style="fill: none;stroke: #00d7d7;stroke-linecap: round;stroke-linejoin: round;stroke-width: 2.5510001182556152px"></path><path d="M1077.606,459.153a157.317,157.317,0,0,1-67.2,97.5" transform="translate(0 0)" style="fill: none;stroke: #00d7d7;stroke-linecap: round;stroke-linejoin: round;stroke-width: 2.5510001182556152px"></path><g><path d="M771.884,495.147a143.456,143.456,0,0,1,33.7-10.6" transform="translate(0 0)" style="fill: none;stroke: #00d7d7;stroke-linecap: round;stroke-linejoin: round;stroke-width: 2.5510001182556152px"></path><line x1="758.184" y1="502.247" x2="758.184" y2="502.247" style="fill: none;stroke: #00d7d7;stroke-linecap: round;stroke-linejoin: round;stroke-width: 1.2910000085830688px"></line></g></g></g></svg> 