<?xml version="1.0" encoding="UTF-8"?>
<svg width="108px" height="108px" viewBox="0 0 108 108" version="1.1" xmlns="http://www.w3.org/2000/svg" xmlns:xlink="http://www.w3.org/1999/xlink">
    <!-- Generator: Sketch 51.3 (57544) - http://www.bohemiancoding.com/sketch -->
    <title>icon copy</title>
    <desc>Created with Sketch.</desc>
    <defs></defs>
    <g id="Page-1" stroke="none" stroke-width="1" fill="none" fill-rule="evenodd">
        <g id="Quem-Somos" transform="translate(-1095.000000, -1522.000000)" fill="#FE642C" fill-rule="nonzero">
            <g id="Big-numbers" transform="translate(166.000000, 1433.000000)">
                <g id="4" transform="translate(899.000000, 89.000000)">
                    <g id="icon-copy" transform="translate(30.000000, 0.000000)">
                        <path d="M103.135365,31.1893763 C102.669243,30.1505947 101.494586,29.7084979 100.512522,30.2018463 C99.5306543,30.695403 99.1125828,31.9377325 99.5792948,32.9769308 C105.653837,46.5058848 105.514611,62.5847081 99.2067129,75.9882416 C98.7222776,77.0178563 99.1182936,78.2681027 100.091693,78.781035 C100.37369,78.9295812 100.672819,79 100.967615,79 C101.690921,79 102.387247,78.5766538 102.731472,77.8451731 C106.108734,70.6682878 107.930092,62.6151257 107.998031,54.5563384 C108.065774,46.5048431 106.384035,38.4248052 103.135365,31.1893763 Z" id="Shape"></path>
                        <path d="M7.92410536,29.2258252 C6.96144201,28.7008763 5.78832416,29.1222336 5.30396647,30.1674707 C1.91639103,37.4839187 0.0832113752,45.7013382 0.00277793345,53.9318921 C-0.0776555083,62.1527011 1.58997182,70.4029564 4.82546558,77.7907958 C5.15949864,78.553857 5.85958195,79 6.58953495,79 C6.87027109,78.9997882 7.15530222,78.9336929 7.42588657,78.7940879 C8.39928739,78.29223 8.81355866,77.0287938 8.35087115,75.972329 C2.29747375,62.1503708 2.46244039,45.7379872 8.79188849,32.0687685 C9.2756605,31.023955 8.88735439,29.7509859 7.92410536,29.2258252 Z" id="Shape"></path>
                        <path d="M77.7780451,5.07562691 C65.8651894,-0.370332467 52.2926539,-1.47585356 39.560963,1.96256033 C38.4250214,2.26955789 37.7617478,3.40683024 38.0794952,4.50307337 C38.3972426,5.5993165 39.5769892,6.23908374 40.7125034,5.93229236 C52.4527028,2.7617024 64.9666502,3.78042297 75.9489142,8.80103919 C76.2444385,8.93608513 76.5555617,9 76.8619839,9 C77.6618012,9 78.4287113,8.56455417 78.7938965,7.82087372 C79.2988306,6.79205047 78.8441121,5.56302935 77.7780451,5.07562691 Z" id="Shape"></path>
                        <path d="M70.9105613,103.300283 C70.5747934,102.229359 69.3914188,101.62041 68.2654587,101.939865 C56.209498,105.36581 43.3476093,104.393678 32.0505819,99.2014175 C30.993519,98.7161614 29.7225344,99.137648 29.2117589,100.144195 C28.7016213,101.150742 29.1447754,102.360542 30.2018383,102.846608 C37.6463594,106.267694 45.7154217,108 53.834881,108 C59.0812812,108 64.348946,107.276468 69.4813681,105.818271 C70.6066903,105.49841 71.2465419,104.371207 70.9105613,103.300283 Z" id="Shape"></path>
                        <path d="M54,20 C35.2523109,20 20,35.2523109 20,54 C20,72.7476891 35.2523109,88 54,88 C72.7476891,88 88,72.7476891 88,54 C88,35.2523109 72.7476891,20 54,20 Z M38.1222622,28.7906167 C36.9375413,30.6696265 36.076346,32.772228 35.6192952,35.0199016 C34.4100107,34.7541109 33.2422953,34.3352702 32.1379834,33.7690479 C33.9040427,31.8619054 35.9155279,30.1852828 38.1222622,28.7906167 Z M29.4704193,37.0950002 C31.2704897,38.1254114 33.2147925,38.8444738 35.2434932,39.2288835 L35.2434932,51.9011775 L24.2723854,51.9011775 C24.6551156,46.429585 26.5213187,41.3610873 29.4704193,37.0950002 Z M29.3717451,70.7628669 C26.4793297,66.526592 24.6507067,61.5095309 24.2725954,56.0988225 L35.2434932,56.0988225 L35.2434932,68.0974022 C33.1522288,68.615757 31.1692961,69.5124331 29.3717451,70.7628669 Z M31.9809444,74.0623661 C33.0793778,73.3286075 34.2649385,72.7644847 35.5084441,72.3794451 C35.9277047,74.8534397 36.8329886,77.1640969 38.1224722,79.2093833 C35.850235,77.773148 33.784164,76.0398402 31.9809444,74.0623661 Z M51.9011775,83.6411172 C45.6956165,82.740872 40.7484671,77.9129715 39.6657795,71.7676647 L51.9011775,71.7676647 L51.9011775,83.6411172 Z M51.9011775,67.5700198 L39.5662655,67.5700198 C39.5242765,67.5700198 39.4827073,67.5721193 39.4407183,67.5723292 L39.4407183,56.0988225 L51.9011775,56.0988225 L51.9011775,67.5700198 Z M51.9011775,51.9011775 L39.4407183,51.9011775 L39.4407183,39.5593373 L51.9011775,39.5593373 L51.9011775,51.9011775 Z M51.9011775,35.3619024 L39.8463324,35.3619024 C41.2233632,29.6350164 45.9914293,25.2160892 51.9011775,24.3586729 L51.9011775,35.3619024 Z M78.5297906,37.0952102 C81.4786813,41.3610873 83.3448844,46.429585 83.7276146,51.9011775 L72.7567167,51.9011775 L72.7567167,39.2290935 C74.7854175,38.8446838 76.7299302,38.1258313 78.5297906,37.0952102 Z M75.8624365,33.7692578 C74.7583345,34.3354801 73.5904092,34.7543209 72.3807048,35.0201115 C71.923654,32.7724379 71.0622488,30.6698364 69.8777378,28.7906167 C72.084682,30.1854928 74.0961673,31.8621154 75.8624365,33.7692578 Z M56.0986125,24.3588828 C62.0081508,25.2160892 66.7764269,29.6352263 68.1534576,35.3621123 L56.0986125,35.3621123 L56.0986125,24.3588828 Z M56.0986125,83.6411172 L56.0986125,71.7676647 L68.3340105,71.7676647 C67.251323,77.9129715 62.3043835,82.740872 56.0986125,83.6411172 Z M68.5590718,67.5725392 C68.5170827,67.5721193 68.4753036,67.5700198 68.4331047,67.5700198 L56.0986125,67.5700198 L56.0986125,56.0988225 L68.5590718,56.0988225 L68.5590718,67.5725392 Z M68.5590718,51.9011775 L56.0986125,51.9011775 L56.0986125,39.5593373 L68.5590718,39.5593373 L68.5590718,51.9011775 Z M69.8777378,79.2093833 C71.1672214,77.163887 72.0725052,74.8536497 72.4917658,72.3796551 C73.7348515,72.7649046 74.9204122,73.3290274 76.0186357,74.062786 C74.2154162,76.0400501 72.1495551,77.773358 69.8777378,79.2093833 Z M78.628045,70.7630768 C76.8304939,69.512853 74.8475612,68.615967 72.7565068,68.0976122 L72.7565068,56.0988225 L83.7274046,56.0988225 C83.3492933,61.5095309 81.5208803,66.526802 78.628045,70.7630768 Z" id="Shape"></path>
                        <path d="M17.5,6 C11.1590438,6 6,11.1588307 6,17.5 C6,23.8411693 11.1588307,29 17.5,29 C23.8409562,29 29,23.8411693 29,17.5 C29,11.1588307 23.8409562,6 17.5,6 Z M17.5,24.7408118 C13.5073173,24.7408118 10.2591882,21.4926827 10.2591882,17.5 C10.2591882,13.5073173 13.5073173,10.2591882 17.5,10.2591882 C21.4926827,10.2591882 24.7408118,13.5073173 24.7408118,17.5 C24.7408118,21.4926827 21.4926827,24.7408118 17.5,24.7408118 Z" id="Shape"></path>
                        <path d="M17.5,79 C11.1590438,79 6,84.1588307 6,90.5 C6,96.8411693 11.1590438,102 17.5,102 C23.8409562,102 29,96.8411693 29,90.5 C29,84.1588307 23.8409562,79 17.5,79 Z M17.5,97.7408118 C13.5073173,97.7408118 10.2591882,94.4926827 10.2591882,90.5 C10.2591882,86.5073173 13.5073173,83.2591882 17.5,83.2591882 C21.4926827,83.2591882 24.7408118,86.5073173 24.7408118,90.5 C24.7408118,94.4926827 21.4926827,97.7408118 17.5,97.7408118 Z" id="Shape"></path>
                        <path d="M90.5,79 C84.1590438,79 79,84.1588307 79,90.5 C79,96.8411693 84.1590438,102 90.5,102 C96.8409562,102 102,96.8411693 102,90.5 C102,84.1588307 96.8409562,79 90.5,79 Z M90.5,97.7408118 C86.5073173,97.7408118 83.2591882,94.4926827 83.2591882,90.5 C83.2591882,86.5073173 86.5073173,83.2591882 90.5,83.2591882 C94.4926827,83.2591882 97.7408118,86.5073173 97.7408118,90.5 C97.7408118,94.4926827 94.4926827,97.7408118 90.5,97.7408118 Z" id="Shape"></path>
                        <path d="M90.5,6 C84.1590438,6 79,11.1588307 79,17.5 C79,23.8411693 84.1590438,29 90.5,29 C96.8409562,29 102,23.8411693 102,17.5 C102,11.1588307 96.8409562,6 90.5,6 Z M90.5,24.7408118 C86.5073173,24.7408118 83.2591882,21.4926827 83.2591882,17.5 C83.2591882,13.5073173 86.5073173,10.2591882 90.5,10.2591882 C94.4926827,10.2591882 97.7408118,13.5073173 97.7408118,17.5 C97.7408118,21.4926827 94.4926827,24.7408118 90.5,24.7408118 Z" id="Shape"></path>
                    </g>
                </g>
            </g>
        </g>
    </g>
</svg>