<?xml version="1.0" encoding="UTF-8"?>
<svg width="100px" height="103px" viewBox="0 0 100 103" version="1.1" xmlns="http://www.w3.org/2000/svg" xmlns:xlink="http://www.w3.org/1999/xlink">
    <!-- Generator: Sketch 51.3 (57544) - http://www.bohemiancoding.com/sketch -->
    <title>icon</title>
    <desc>Created with Sketch.</desc>
    <defs></defs>
    <g id="Page-1" stroke="none" stroke-width="1" fill="none" fill-rule="evenodd">
        <g id="Quem-Somos" transform="translate(-501.000000, -1523.000000)" fill="#FE642C" fill-rule="nonzero">
            <g id="Big-numbers" transform="translate(166.000000, 1433.000000)">
                <g id="2" transform="translate(301.000000, 90.000000)">
                    <g id="icon" transform="translate(34.000000, 0.000000)">
                        <path d="M97.9857068,98.6217311 L80.6929507,98.6217311 L80.587232,49.3561678 C80.5848156,48.2502724 79.6836897,47.3556538 78.5733416,47.3556538 C77.4565496,47.3580592 76.5568334,48.2574887 76.5592498,49.3647872 L76.6649685,98.6217311 L70.8154031,98.6217311 L70.7636513,76.7026727 C70.7610335,75.5969778 69.8599077,74.7025596 68.7497609,74.7025596 C67.6325662,74.7051655 66.7328499,75.6047954 66.7356691,76.712094 L66.7874209,98.6217311 L61.897177,98.6217311 L61.897177,72.0898643 C67.5979307,71.5881322 72.0802012,66.9248098 72.0802012,61.2622327 L72.0802012,41.8335937 C72.0802012,38.7442229 71.4217249,35.7159899 70.1621624,32.9192794 C74.1393996,33.183676 77.841567,34.7945107 80.6897288,37.5322882 C83.8065167,40.5282484 85.5280195,44.5120374 85.5368797,48.7518041 L85.5737302,62.1607473 C85.5773549,63.2658409 86.4782793,64.1592568 87.5876206,64.1592568 C88.7064263,64.1556486 89.6053371,63.2552169 89.6019138,62.1479184 L89.5650633,48.7411801 C89.5535853,43.4091488 87.3953133,38.4040553 83.4877497,34.6479801 C81.2557768,32.5025391 78.6047551,30.9135537 75.7155141,29.9495785 C77.7620263,28.0106034 79.0391079,25.2744295 79.0326641,22.2467979 C79.0199778,16.4052169 74.2420978,11.6615132 68.3764229,11.6615132 C66.6446503,11.6653218 64.9454995,12.0818616 63.4398642,12.8662315 C62.4543648,13.3797903 62.0735762,14.591324 62.5894833,15.5723376 C63.1055918,16.5533512 64.3228668,16.9324065 65.3079635,16.4188477 C66.2556056,15.9251336 67.2831911,15.673566 68.3623271,15.6711606 C72.0230124,15.6693565 74.9970298,18.6170076 75.0048832,22.2552169 C75.0127366,25.8934262 72.0455658,28.8597194 68.3907201,28.867537 C68.0282561,28.8903886 67.9211278,28.8941972 67.8135968,28.9002107 C64.9038161,24.936066 60.8188465,22.0603773 56.1664193,20.6010845 C58.6364103,18.4438168 60.2004426,15.2820826 60.2004426,11.7615389 C60.1996371,5.27610506 54.8996075,0 48.3847193,0 C41.8696297,0 36.5693988,5.27610506 36.5693988,11.7615389 C36.5693988,15.4526676 38.287881,18.7505088 40.9687053,20.9083779 C36.6980735,22.4426398 32.955431,25.1910413 30.2373535,28.888785 C29.9183852,28.8745528 29.5998196,28.8661338 29.2828649,28.8661338 C29.132241,28.8661338 28.9820198,28.8685393 28.8319999,28.8717465 C25.0668041,28.8661338 22.0933909,25.9062551 22.0933909,22.2680458 C22.0933909,18.6298366 25.0668041,15.6699579 28.7216498,15.6699579 C29.8263596,15.6699579 30.9191886,15.9453793 31.881732,16.4663549 C32.8589753,16.9949476 34.0816873,16.6353361 34.6133012,15.6625411 C35.1445124,14.6897461 34.7830552,13.4723993 33.8058119,12.9434056 C32.2544659,12.1037109 30.4963139,11.6599095 28.7214484,11.6599095 C22.8455037,11.6599095 18.0650059,16.4186472 18.0650059,22.2678454 C18.0650059,25.4530325 19.4846567,28.312685 21.7246844,30.2588764 C14.110322,33.1816715 8.71182297,40.3841231 8.71182297,48.7846782 L8.71182297,62.1543329 C8.71182297,63.2616314 9.61355293,64.1592568 10.7259148,64.1592568 C11.8382766,64.1592568 12.7400066,63.2616314 12.7400066,62.1543329 L12.7400066,48.7846782 C12.7400066,40.4699167 19.4085392,33.6292815 27.8716716,32.9379215 C26.6177474,35.7292198 25.9618889,38.7506373 25.9618889,41.8335937 L25.9618889,61.2622327 C25.9618889,67.0368627 30.622975,71.7725483 36.4844211,72.1149208 L36.4844211,98.6215306 L30.9975211,98.6215306 L30.9975211,76.7066817 C30.9975211,75.5993832 30.0957912,74.7017578 28.9834294,74.7017578 C27.8710675,74.7017578 26.9693376,75.5993832 26.9693376,76.7066817 L26.9693376,98.6217311 L22.0184816,98.6217311 L22.0184816,49.3806229 C22.0184816,48.2733244 21.1167517,47.375699 20.0043898,47.375699 C18.892028,47.375699 17.990298,48.2733244 17.990298,49.3806229 L17.990298,98.6217311 L2.0140918,98.6217311 C0.90172996,98.6217311 0,99.5193565 0,100.626655 C0,101.733954 0.901528591,102.631579 2.0140918,102.631579 L97.9859082,102.631579 C99.09827,102.631579 100,101.733954 100,100.626655 C99.9995973,99.5193565 99.0980687,98.6217311 97.9857068,98.6217311 Z M40.597381,11.7615389 C40.597381,7.48729441 44.0907288,4.00984786 48.384518,4.00984786 C52.6783071,4.00984786 56.1714535,7.48729441 56.1714535,11.7615389 C56.1714535,16.0357833 52.6781058,19.5132299 48.384518,19.5132299 C44.0909301,19.5132299 40.597381,16.0357833 40.597381,11.7615389 Z M59.8828838,40.504595 C58.770522,40.504595 57.868792,41.4022204 57.868792,42.5095189 L57.868792,98.6217311 L50.6956289,98.6217311 L50.6956289,70.7293945 C50.6956289,69.622096 49.7938989,68.7244706 48.6815371,68.7244706 C47.5691753,68.7244706 46.6674453,69.622096 46.6674453,70.7293945 L46.6674453,98.6219315 L40.5126047,98.6219315 L40.5126047,42.5095189 C40.5126047,41.4022204 39.6108747,40.504595 38.4985129,40.504595 C37.3861511,40.504595 36.4844211,41.4022204 36.4844211,42.5095189 L36.4844211,68.0954513 C32.8462891,67.7667095 29.9898711,64.8282792 29.9898711,61.2624332 L29.9898711,41.8337942 C29.9898711,38.3639648 31.0035622,34.986544 32.9213997,32.0669562 C36.4356898,26.7170847 42.4542037,23.5230777 49.0208437,23.5230777 C55.5983576,23.5230777 61.6223085,26.7253032 65.1345849,32.0892064 C67.042958,35.0037829 68.0518162,38.3733861 68.0518162,41.8337942 L68.0518162,61.2624332 C68.0518162,64.7166273 65.3715961,67.581692 61.8969756,68.056764 L61.8969756,42.5095189 C61.897177,41.4022204 60.9952457,40.504595 59.8828838,40.504595 Z" id="Shape"></path>
                    </g>
                </g>
            </g>
        </g>
    </g>
</svg>