<?xml version="1.0" encoding="UTF-8"?> <svg xmlns="http://www.w3.org/2000/svg" viewBox="0 0 1200 1200"><title>illustration-15</title><rect width="1200" height="1200" style="fill: none"></rect><g><path d="M694.3,508.4c4.1,5.7.3,14.9-7.9,13.3" transform="translate(0 0)" style="fill: #00a5f0"></path><path d="M1148.4,1016.6c-5.8,0-11.5-2.8-18.1-6-9.1-4.4-20.4-9.9-36.5-9.9h-1.5c-20-28.6-54.6-77-86.9-117.2l-80.8,81.2.2.2h0l-.2-.2c-2.1-2.7-4.3-5.5-6.6-8.2-.8-.9-1.5-1.8-2.3-2.7a17.969,17.969,0,0,0-2-1.9l-8.6-6.6c-9-5.3-21.9-8.6-44.6-7.3-38.5,2.2-62-1.5-95.9-16.2-34-14.6-74.2-12.7-74.2-12.7,11.5-29.8,37-28,64-25.9,29.3,2.3,73.2.4,87.3-33.9,12.9-31.4-8-73.4-54.9-69.2-38.5,3.5-48.2,26.2-77.6,31-24.8,4-32.7-11-34.6-15.9a45.734,45.734,0,0,1-4-13.9H455.8v.1c0,22.8-11.1,42.3-30.3,46.1-16.9,3.3-34.6-.2-62.9-25.3-31.2-27.7-68.1-44.9-117.2-35.8-65.8,12.1-91.1,59.3-99.9,127.8-7.7,59.9-12,93-14.5,111-6.3-2.3-13.8-4.3-25.8-4.3-16.1,0-27.4,5.5-36.5,9.9-6.6,3.2-12.2,6-18.1,6a1.1,1.1,0,1,0,0,2.2c6.4,0,12.3-2.9,19.1-6.2,9.3-4.5,19.9-9.7,35.5-9.7,15.2,0,22.6,3,30.5,6.3,7.7,3.2,15.7,6.4,31.3,6.4,15.7,0,23.6-3.3,31.3-6.4,7.8-3.2,15.2-6.3,30.5-6.3,15.2,0,22.6,3,30.5,6.3,7.7,3.2,15.7,6.4,31.3,6.4,15.7,0,23.6-3.3,31.3-6.4,7.8-3.2,15.2-6.3,30.5-6.3s22.6,3,30.5,6.3c7.7,3.2,15.7,6.4,31.3,6.4,15.7,0,23.6-3.3,31.3-6.4,7.8-3.2,15.2-6.3,30.5-6.3s22.6,3,30.5,6.3c7.7,3.2,15.7,6.4,31.3,6.4,15.7,0,23.6-3.3,31.3-6.4,7.8-3.2,15.2-6.3,30.5-6.3,15.2,0,22.6,3,30.5,6.3,7.7,3.2,15.7,6.4,31.3,6.4,15.7,0,23.6-3.3,31.3-6.4,7.8-3.2,15.2-6.3,30.5-6.3s22.6,3,30.5,6.3c7.7,3.2,15.7,6.4,31.3,6.4,15.7,0,23.6-3.3,31.3-6.4,7.8-3.2,15.2-6.3,30.5-6.3,15.2,0,22.6,3,30.5,6.3,7.7,3.2,15.7,6.4,31.3,6.4s23.6-3.3,31.3-6.4c7.8-3.2,15.2-6.3,30.5-6.3,15.2,0,22.6,3,30.5,6.3,7.7,3.2,15.7,6.4,31.3,6.4,15.7,0,23.6-3.3,31.3-6.4,7.8-3.2,15.2-6.3,30.5-6.3,15.6,0,26.2,5.1,35.5,9.7,6.8,3.3,12.7,6.2,19.1,6.2a1.11,1.11,0,0,0,1.1-1.1A1.487,1.487,0,0,0,1148.4,1016.6Zm-208.6-9.7h0a70.063,70.063,0,0,0-13-38.9C936.8,982.4,939.6,996.3,939.8,1006.9Z" transform="translate(0 0)" style="fill: #0073cd"></path><path d="M673.6,792.9c0,.1.1.1.1.2C673.7,793,673.6,793,673.6,792.9Z" transform="translate(0 0)" style="fill: #0044a4"></path><path d="M670.6,781.3a124.778,124.778,0,0,1-1.2-18.5v-65c-9.5,7.1-21.2,14.2-36.2,22.1-30.2,15.9-52.1,22.9-72.8,22.9a79.353,79.353,0,0,1-8.5-.4c-22.7-2.1-46-12.2-82.9-36-4.7-3.1-9.1-6-13.1-8.9v83.7l214.7.1Z" transform="translate(0 0)" style="fill: #0044a4"></path><path d="M882.4,364.7c5.5-8.9,11.1-18.1,11.1-27.9s-5.7-19-11.1-27.8c-4.5-7.3-8.7-14.2-10.2-21.4-1.6-7.8-.4-16.5.8-25,1.5-10.5,2.9-20.5-.8-28.8-3.9-8.6-12.8-14.5-21.4-20.2-6.9-4.6-14.1-9.3-18.7-15.5s-7.1-14.4-9.6-22.4c-3-9.9-6.1-20-13.2-26.2-6.7-5.9-16.5-7.6-26.8-9.5-8.5-1.5-17.4-3.1-24.3-7.2-6.7-4-12.1-10.9-17.3-17.6-6.3-8-12.7-16.3-21.4-19.7a31.536,31.536,0,0,0-11.7-1.9,113.96,113.96,0,0,0-16.1,1.6A119.376,119.376,0,0,1,675,96.8a38.729,38.729,0,0,1-9.4-1c-7.7-1.9-15-7.1-22-12.2-8.1-5.8-16.5-11.9-25.6-12.9a26.352,26.352,0,0,0-2.8-.2c-7.7,0-15.6,3.3-23.9,6.7-8.3,3.5-17,7-25.4,7-8.5,0-17.1-3.6-25.4-7-8.3-3.5-16.2-6.7-23.9-6.7a24.583,24.583,0,0,0-2.8.2c-9.1,1-17.5,7.1-25.6,12.9-7,5.1-14.3,10.3-22,12.2a38.729,38.729,0,0,1-9.4,1,119.376,119.376,0,0,1-16.7-1.6A112.528,112.528,0,0,0,424,93.6a31.536,31.536,0,0,0-11.7,1.9c-8.7,3.4-15.2,11.7-21.4,19.7-5.2,6.7-10.7,13.6-17.3,17.6-7,4.2-15.8,5.7-24.3,7.2-10.3,1.8-20.1,3.6-26.8,9.5-7.1,6.2-10.2,16.4-13.2,26.2-2.4,8-5,16.2-9.6,22.4-4.6,6.1-11.8,10.9-18.7,15.5-8.6,5.7-17.6,11.6-21.4,20.2-3.7,8.3-2.3,18.2-.8,28.8,1.2,8.4,2.4,17.1.8,25-1.5,7.3-5.7,14.1-10.2,21.4-5.5,8.9-11.1,18.1-11.1,27.8,0,9.8,5.7,19,11.1,27.9,4.5,7.3,8.7,14.2,10.2,21.4,1.6,7.8.4,16.5-.8,25-1.5,10.5-2.9,20.5.8,28.8,3.9,8.6,12.8,14.5,21.4,20.2,6.9,4.6,14.1,9.3,18.7,15.5s7.1,14.4,9.6,22.4c3,9.9,6.1,20,13.2,26.2,6.7,5.9,16.5,7.6,26.8,9.5a128.831,128.831,0,0,1,14,3c.6-12.8,9.8-23.7,25.5-24.1,2.7-.1,5.5-.1,8.3-.2h0c96.9,0,71.4-134.3,175-134.3h0c1.4,0,2.8,0,4.2-.1h0c88,0,175.7,11.1,163.2,106.8-.2,1.3-.4,2.6-.6,4-.1.4-.1.9-.2,1.3-.1,1-.3,2-.5,3-.1.5-.1.9-.2,1.4-.2,1.4-.4,2.9-.7,4.4,0,.2-.1.4-.1.6l-.6,4.2c0,.3-.1.6-.1.9-.5,3-.9,6.2-1.4,9.4h0v.2c-1.4,9.2-3,19.1-4.7,29.3l-.1.4c11.4,0,15.5-34.2,31.8-19.8h0a20.8,20.8,0,0,1,6.5,12.7c4.6-1.3,9.5-2.2,14.3-3.1,10.3-1.8,20.1-3.6,26.8-9.5,7.1-6.2,10.2-16.4,13.2-26.2,2.4-8,5-16.2,9.6-22.4,4.6-6.1,11.8-10.9,18.7-15.5,8.6-5.7,17.6-11.6,21.4-20.2,3.7-8.3,2.3-18.2.8-28.8-1.2-8.4-2.4-17.1-.8-25C873.7,378.9,878,372,882.4,364.7Z" transform="translate(0 0)" style="fill: #fff"></path><path d="M470.2,704.5c68.5,44.2,98.8,46.7,161.9,13.4,25.5-13.4,41.3-24.6,53.1-37.3l.2.2c18.8-20.1,27.1-44.3,34.9-84v-.1c1.6-7.9,5.7-14.9,15.9-18.7,1.3-.4,2.6-.8,3.8-1.2h.2c18.6-6.6,27.1-18.3,28.2-32.4.7-9.1-1.8-15.6-6.8-20.2h0c-16.3-14.4-20.4,19.8-31.8,19.8l4.8-30h0c1.7-10.8,3.2-20.6,4.4-29.2C751.6,389.1,663.9,378,575.9,378h0c-1.4,0-2.8,0-4.2.1h0c-103.6,0-78,134.3-175,134.3h0c-2.8,0-5.5.1-8.3.2-31.7.9-36.7,44,1,60.7h0c10.2,4.5,13,10.3,14.1,21.4h0c3.7,38.9,7.3,60.9,34.1,85.5h0C446,687.8,456.6,695.7,470.2,704.5Z" transform="translate(0 0)" style="fill: #0044a4"></path><path d="M924.8,965c11.7,15.6,14.8,30.8,15.1,42.1h0C939.6,995.8,936.5,980.6,924.8,965Z" transform="translate(0 0)" style="fill: none"></path><path d="M924.8,965Z" transform="translate(0 0)" style="fill: #00a5f0"></path><path d="M411.7,1115a1.11,1.11,0,0,1-1.1-1.1V979.1a1.1,1.1,0,0,1,2.2,0v134.7A1.2,1.2,0,0,1,411.7,1115Z" transform="translate(0 0)" style="fill: #fff"></path><path d="M426.1,668a57.842,57.842,0,0,1-94.5-44.8,26.2,26.2,0,0,1,.1-2.8,2.769,2.769,0,0,1,.1-.9c0-.6.1-1.2.1-1.9,0-.4.1-.7.1-1.1.1-.6.1-1.1.2-1.7.1-.4.1-.7.2-1.1.1-.5.2-1.1.3-1.6.1-.4.1-.7.2-1.1a9.363,9.363,0,0,1,.4-1.6c.1-.3.2-.7.3-1,.2-.6.3-1.1.5-1.7l.3-.9a14.273,14.273,0,0,1,.8-2.2c0-.1.1-.2.1-.3a26.043,26.043,0,0,1,1-2.5,2.994,2.994,0,0,1,.4-.8c.2-.5.5-1.1.7-1.6a9.292,9.292,0,0,0,.5-1c.2-.5.5-.9.7-1.4a4.671,4.671,0,0,0,.5-1,9.129,9.129,0,0,1,.8-1.3c.2-.3.4-.7.6-1,.3-.4.5-.9.8-1.3l.6-.9c.3-.4.6-.9.9-1.3a5.547,5.547,0,0,1,.6-.8l1.2-1.5c.1-.2.3-.4.4-.6a15.371,15.371,0,0,1,1.7-1.9c.2-.3.5-.5.7-.8a11.408,11.408,0,0,1,1.1-1.1l.8-.8,1-1a6.47,6.47,0,0,1,.9-.8,10.627,10.627,0,0,1,1.1-.9,8.744,8.744,0,0,1,1-.8,7.632,7.632,0,0,1,1.1-.8c.3-.3.7-.5,1-.8a10.475,10.475,0,0,0,1.1-.8c.3-.2.7-.5,1-.7a24064693950327.18,24064693950327.18,0,0,1,2.6-1.6c.6-.4,1.2-.7,1.9-1.1.4-.2.7-.4,1.1-.6l1.2-.6,1.2-.6,1.2-.6c.4-.2.8-.3,1.2-.5s.8-.3,1.2-.5.8-.3,1.3-.5c.4-.1.8-.3,1.3-.4.4-.1.9-.3,1.3-.4a6.468,6.468,0,0,0,1.3-.4c.4-.1.9-.2,1.3-.3.5-.1.9-.2,1.4-.3l1.2-.3a54.733,54.733,0,0,1,11.5-1.2,1.1,1.1,0,0,0,0-2.2,58.84,58.84,0,0,0-30,8.1.1.1,0,0,0-.1.1c-.7.4-1.4.8-2,1.2l-.1.1a68.074,68.074,0,0,0-9.4,7.4l-.3.3-1.4,1.4-.5.5a16.605,16.605,0,0,1-1.3,1.4c-.2.2-.3.4-.5.6-.4.5-.8.9-1.2,1.4-.2.2-.3.4-.5.6a14.309,14.309,0,0,0-1.1,1.5c-.1.1-.1.2-.2.3-.7,1-1.4,2.1-2.1,3.1-.2.3-.3.5-.5.8-.3.4-.5.9-.8,1.3-.2.4-.4.7-.6,1.1a7.459,7.459,0,0,1-.7,1.2l-.6,1.2-.6,1.2c-.2.4-.4.9-.6,1.3s-.3.8-.5,1.2l-.6,1.5c-.1.4-.3.7-.4,1.1-.3.7-.5,1.5-.8,2.2a1.854,1.854,0,0,0-.2.7c-.2.7-.4,1.5-.6,2.2a3.553,3.553,0,0,0-.2,1c-.1.6-.3,1.2-.4,1.8-.1.4-.1.7-.2,1.1-.1.6-.2,1.1-.3,1.7-.1.4-.1.7-.2,1.1a11.019,11.019,0,0,0-.2,1.8c0,.4-.1.7-.1,1.1a12.1,12.1,0,0,0-.1,1.9,2.769,2.769,0,0,1-.1.9c0,1-.1,1.9-.1,2.9a60.192,60.192,0,0,0,98.3,46.6A15.254,15.254,0,0,1,426.1,668Z" transform="translate(0 0)" style="fill: #fff"></path><path d="M639.9,616.6c-9.5,3.1-20.9,4.8-33.1,5.5-10.8.6-17-.1-23.7,1.4-7.8,1.8-12.2,5.3-16.4,9.3-5.4-2.9-10.8-5.9-16.3-6.7-12.1-1.9-27.4,3.3-58.6,9.9,15.8,18.3,49.5,27.8,73.7,27.1C614.4,661.6,634.1,635.9,639.9,616.6Z" transform="translate(0 0)" style="fill: #ff833a"></path><path d="M761.7,524Z" transform="translate(0 0)" style="fill: #fff"></path><path d="M337.3,1068.1c-12.5-9-30.3-10.2-44.2-3a34.667,34.667,0,0,0-16.9,18.9V881.6a1.1,1.1,0,1,0-2.2,0v51.7a34.437,34.437,0,0,0-16.8-18.7c-13.9-7.1-31.6-5.9-44.2,3a1.151,1.151,0,1,0,1.3,1.9c11.9-8.5,28.7-9.6,41.8-2.9,11.5,5.9,17.9,16.5,17.9,29.8v22.5a34.1,34.1,0,0,0-16.8-18.7c-13.9-7.1-31.6-5.9-44.2,3a1.151,1.151,0,0,0,1.3,1.9c11.9-8.5,28.7-9.6,41.8-2.9,11.5,5.9,17.9,16.5,17.9,29.8v130.8a37.5,37.5,0,0,0-25.6,11,1.131,1.131,0,0,0,1.6,1.6,35.549,35.549,0,0,1,50.3,0,1.217,1.217,0,0,0,1.6,0,1.217,1.217,0,0,0,0-1.6,37.689,37.689,0,0,0-25.6-11v-15.6c0-.1.1-.2.1-.3,0-13.3,6.3-23.9,17.9-29.8a41.011,41.011,0,0,1,41.8,2.9,1.147,1.147,0,0,0,1.6-.3A1.42,1.42,0,0,0,337.3,1068.1Z" transform="translate(0 0)" style="fill: #fff"></path><path d="M437.6,1125.8a1.135,1.135,0,0,1-.8-.3,35.731,35.731,0,0,0-50.4,0,1.131,1.131,0,0,1-1.6-1.6,37.9,37.9,0,0,1,53.6,0,1.217,1.217,0,0,1,0,1.6A1.6,1.6,0,0,1,437.6,1125.8Z" transform="translate(0 0)" style="fill: #fff"></path><path d="M580.9,977a41.011,41.011,0,0,1,41.8,2.9A1.151,1.151,0,0,0,624,978c-12.5-9-30.3-10.2-44.2-3A34.289,34.289,0,0,0,563,993.6V972.2c.5-12.6,6.7-22.6,17.8-28.3a41.011,41.011,0,0,1,41.8,2.9,1.151,1.151,0,1,0,1.3-1.9c-12.5-9-30.3-10.2-44.2-3a34.289,34.289,0,0,0-16.8,18.6V921.1a1.1,1.1,0,1,0-2.2,0v39.7A34.106,34.106,0,0,0,543.8,942c-13.9-7.1-31.6-5.9-44.2,3a1.151,1.151,0,0,0,1.3,1.9c11.9-8.5,28.7-9.6,41.8-2.9,11.5,5.9,17.9,16.5,17.9,29.8v80.4a34.106,34.106,0,0,0-16.9-18.8c-13.9-7.1-31.6-5.9-44.2,3a1.151,1.151,0,1,0,1.3,1.9c11.9-8.5,28.7-9.6,41.8-2.9,11.5,5.9,17.9,16.5,17.9,29.8v45.6a37.689,37.689,0,0,0-25.6,11,1.131,1.131,0,0,0,1.6,1.6,35.549,35.549,0,0,1,50.3,0,1.217,1.217,0,0,0,1.6,0,1.217,1.217,0,0,0,0-1.6,37.689,37.689,0,0,0-25.6-11v-17.3c.5-12.6,6.7-22.6,17.8-28.3a41.011,41.011,0,0,1,41.8,2.9,1.151,1.151,0,0,0,1.3-1.9c-12.5-9-30.3-10.2-44.2-3a34.289,34.289,0,0,0-16.8,18.6v-78.4C563.6,992.7,569.8,982.7,580.9,977Z" transform="translate(0 0)" style="fill: #fff"></path><path d="M747.9,1065.1a34.437,34.437,0,0,0-16.8,18.7V973.6c0-13.3,6.3-23.9,17.9-29.8a41.011,41.011,0,0,1,41.8,2.9,1.151,1.151,0,0,0,1.3-1.9c-12.5-9-30.3-10.2-44.2-3a34.437,34.437,0,0,0-16.8,18.7V881.7a1.1,1.1,0,0,0-2.2,0V1054a34.437,34.437,0,0,0-16.8-18.7c-13.9-7.1-31.6-5.9-44.2,3a1.151,1.151,0,0,0,1.3,1.9c11.9-8.5,28.7-9.6,41.8-2.9,11.5,5.9,17.9,16.5,17.9,29.8v45.7a37.352,37.352,0,0,0-25.6,11.1,1.131,1.131,0,1,0,1.6,1.6,35.731,35.731,0,0,1,50.4,0,1.217,1.217,0,0,0,1.6,0,1.217,1.217,0,0,0,0-1.6,37.738,37.738,0,0,0-25.6-11.1V1097c0-13.3,6.3-23.9,17.9-29.8a41.011,41.011,0,0,1,41.8,2.9,1.151,1.151,0,1,0,1.3-1.9A43.928,43.928,0,0,0,747.9,1065.1Z" transform="translate(0 0)" style="fill: #fff"></path><path d="M915.7,953.8a17.969,17.969,0,0,0-2-1.9c1.4,1.5,2.8,3.1,4.3,4.6C917.2,955.6,916.5,954.7,915.7,953.8Z" transform="translate(0 0)" style="fill: none"></path><path d="M920,695.6c.2-1.6.4-3.1.6-4.7.2-1.4.3-2.8.5-4.2l-2.3-.3c-1,7.4-1.7,15.1-2.5,23.1.6.9,1.2,1.9,1.7,2.8C918.7,706.8,919.3,701.2,920,695.6Z" transform="translate(0 0)" style="fill: #0073cd"></path><path d="M737,498.8c0,.2-.1.4-.1.6A1.268,1.268,0,0,1,737,498.8Z" transform="translate(0 0)" style="fill: none"></path><path d="M734.6,514.1l-4.7,29.3C731.6,533.3,733.2,523.4,734.6,514.1Z" transform="translate(0 0)" style="fill: none"></path><path d="M736.2,503.6c0,.3-.1.6-.1.9A2.769,2.769,0,0,0,736.2,503.6Z" transform="translate(0 0)" style="fill: none"></path><path d="M737.8,493.1c-.1.4-.1.9-.2,1.4A7.844,7.844,0,0,0,737.8,493.1Z" transform="translate(0 0)" style="fill: none"></path><path d="M738.5,488.7c-.1.4-.1.9-.2,1.3C738.4,489.6,738.4,489.1,738.5,488.7Z" transform="translate(0 0)" style="fill: none"></path><path d="M738.3,490c-.1,1-.3,2-.5,3C738,492,738.1,491,738.3,490Z" transform="translate(0 0)" style="fill: #0044a4"></path><path d="M739.1,484.7c-.2,1.3-.4,2.6-.6,4C738.7,487.3,738.9,486,739.1,484.7Z" transform="translate(0 0)" style="fill: #0044a4"></path><path d="M736.9,499.4l-.6,4.2Z" transform="translate(0 0)" style="fill: #0044a4"></path><path d="M737.6,494.4c-.2,1.4-.4,2.9-.7,4.4C737.2,497.3,737.4,495.9,737.6,494.4Z" transform="translate(0 0)" style="fill: #0044a4"></path><path d="M734.7,513.9h0c.5-3.2,1-6.3,1.4-9.4q-.75,4.65-1.5,9.6Z" transform="translate(0 0)" style="fill: #0044a4"></path><path d="M740.2,681.1a57.676,57.676,0,0,1-41.6-17.7c-.4.7-.8,1.3-1.2,2a60.175,60.175,0,0,0,74.9,8.8c-.9-.3-1.8-.7-2.8-1A58.385,58.385,0,0,1,740.2,681.1Z" transform="translate(0 0)" style="fill: #fff"></path><path d="M800.4,623.2a60.558,60.558,0,0,0-1.2-12.1h0a71.141,71.141,0,0,0-2.7-9.3h0c-.3-.7-.6-1.4-.9-2.2h0a19.987,19.987,0,0,0-1-2.1h0a59.269,59.269,0,0,0-8.7-13.4l-.3-.3c-.2-.3-.5-.5-.7-.8-.3-.4-.7-.7-1-1.1l-.5-.5a15.933,15.933,0,0,0-1.3-1.3l-.3-.3c-.5-.5-1.1-1-1.6-1.5l-.1-.1a60.165,60.165,0,0,0-21.6-12.3h0a58.9,58.9,0,0,0-18.3-2.9,1.1,1.1,0,0,0,0,2.2,57.118,57.118,0,0,1,17.1,2.6c.2,0,.3.1.5.1a15.872,15.872,0,0,1,2,.7.349.349,0,0,1,.2.1c.7.3,1.4.5,2.2.8h0a56.8,56.8,0,0,1,18.2,11.9l.7.7.9.9c.4.4.7.8,1.1,1.2l.5.5a17.41,17.41,0,0,0,1.2,1.4c.1.1.2.2.2.3.4.5.9,1.1,1.3,1.6l.1.1c.4.6.9,1.2,1.3,1.8h0a57.428,57.428,0,0,1,10.4,32.9c.8.3,1.5.5,2.3.8Z" transform="translate(0 0)" style="fill: #fff"></path><path d="M1005.4,883.6c-43.2-53.7-53.5-75.9-53.5-132.6l3.3-113.3c-26.1,3.5-30.1,19.8-34.6,53.2-.7,6.2-1.3,12.6-2,19.3-2.9,31.3-6.3,66.7-25.5,105-24.6,49-17.9,93.8,20.6,136.6.7.6,1.3,1.3,2,1.9.8.9,1.6,1.8,2.3,2.7,2.3,2.7,4.5,5.5,6.6,8.2.1.1.1.2.2.2-.1-.1-.1-.2-.2-.2l80.8-81" transform="translate(0 0)" style="fill: #0044a4"></path><path d="M891.1,814.3c19.1-37.9,22.4-73.1,25.3-104.2v-.5c-27.8-44.8-76.8-79.9-161.1-98.4,0,0-4,14.5,3.3,24.7,0,0-1-1.8-31.8-6.1,0,0-8.6,27.7,28.3,38.8,57.8,17.4,74.1,35.1,94.1,68.6-63.6-16.4-85.9,0-129.5,31.1-18.2,13-29.4,20.8-45.6,25.4,0,0,5.6,22.2,35.1,17.4,29.5-4.7,39.1-27.5,77.6-31,46.9-4.2,67.8,37.8,54.9,69.2-14.1,34.3-58,36.2-87.3,33.9-27-2.1-52.5-3.9-64,25.9,0,0,40.2-2,74.2,12.7,34,14.6,57.4,18.4,95.9,16.2,22.8-1.3,35.7,2,44.6,7.3C872.1,904.2,867.5,861.1,891.1,814.3Z" transform="translate(0 0)" style="fill: #0044a4"></path><circle cx="730" cy="844.9" r="37.6" style="fill: #ffc800"></circle><path d="M742.3,847a9.539,9.539,0,0,0-8.4-4.4l-8.1.1c-4.9.1-7.1-2.8-7.2-5.4,0-2.7,2.2-5.5,7-5.6l14.9-.2a1.151,1.151,0,0,0-.1-2.3l-9,.1-.1-7.4a1.11,1.11,0,0,0-1.1-1.1h0a1.135,1.135,0,0,0-1.1,1.2l.1,7.4h-3.6c-6.2.1-9.3,4-9.3,7.9,0,3.8,3.3,7.7,9.3,7.7h.2l8.1-.1a7.051,7.051,0,0,1,6.4,3.2,6.746,6.746,0,0,1,.1,6.6c-1.2,2.1-3.4,3.2-6.3,3.3l-15.2.2a1.135,1.135,0,0,0-1.1,1.2,1.11,1.11,0,0,0,1.1,1.1h0l10.7-.1.1,7.4a1.11,1.11,0,0,0,1.1,1.1h0a1.135,1.135,0,0,0,1.1-1.2l-.1-7.4H734c3.8,0,6.7-1.6,8.3-4.4A8.619,8.619,0,0,0,742.3,847Z" transform="translate(0 0)" style="fill: #fff"></path><circle cx="561.1" cy="883.3" r="37.6" style="fill: #ffc800"></circle><path d="M565.2,881.1h-.1l-8.1.1c-3,0-5.3-1-6.5-3a5.029,5.029,0,0,1-.1-4.9c1.1-1.9,3.4-3.1,6.4-3.1l4.7-.1h0l10.1-.1a1.135,1.135,0,0,0,1.1-1.2,1.11,1.11,0,0,0-1.1-1.1h0l-9,.1-.1-7.4a1.11,1.11,0,0,0-1.1-1.1h0a1.135,1.135,0,0,0-1.1,1.2l.1,7.4h-3.6c-3.8,0-6.9,1.6-8.4,4.3a7.135,7.135,0,0,0,.1,7.2c1.6,2.6,4.6,4.1,8.5,4.1l8.1-.1h.1c4.9,0,7.1,3.4,7.2,6.6,0,3.2-2.2,6.4-7.2,6.5h-3.3l-11.9.1a1.135,1.135,0,0,0-1.1,1.2,1.11,1.11,0,0,0,1.1,1.1h0l10.7-.1.1,7.4a1.11,1.11,0,0,0,1.1,1.1h0a1.135,1.135,0,0,0,1.1-1.2l-.1-7.4h2.2c6.5-.1,9.5-4.6,9.4-8.8C574.6,885.5,571.3,881.1,565.2,881.1Z" transform="translate(0 0)" style="fill: #fff"></path><circle cx="411.2" cy="941.5" r="37.6" style="fill: #ffc800"></circle><path d="M423.5,943.6a9.089,9.089,0,0,0-8.2-4.4h-.1l-8.1.1H407c-4.8,0-7-2.8-7-5.4,0-2.7,2.2-5.5,7-5.6l14.9-.2a1.135,1.135,0,0,0,1.1-1.2,1.078,1.078,0,0,0-1.2-1.1l-9,.1-.1-7.4a1.11,1.11,0,0,0-1.1-1.1h0a1.135,1.135,0,0,0-1.1,1.2l.1,7.4H407c-6.2.1-9.3,4-9.3,7.9,0,3.8,3.3,7.7,9.3,7.7h.2l8.1-.1a7.163,7.163,0,0,1,6.4,3.2,6.746,6.746,0,0,1,.1,6.6c-1.2,2.1-3.4,3.2-6.3,3.3l-15.2.2a1.135,1.135,0,0,0-1.1,1.2,1.11,1.11,0,0,0,1.1,1.1h0L411,957l.1,7.4a1.11,1.11,0,0,0,1.1,1.1h0a1.135,1.135,0,0,0,1.1-1.2l-.1-7.4h2.2c3.8,0,6.7-1.6,8.3-4.4A9.109,9.109,0,0,0,423.5,943.6Z" transform="translate(0 0)" style="fill: #fff"></path><circle cx="274.7" cy="844" r="37.6" style="fill: #ffc800"></circle><path d="M287,846.2a9.539,9.539,0,0,0-8.4-4.4l-8.1.1c-4.9.1-7.1-2.8-7.2-5.4,0-2.7,2.2-5.5,7-5.6l14.9-.2a1.151,1.151,0,1,0-.1-2.3l-9,.1-.1-7.4a1.11,1.11,0,0,0-1.1-1.1h0a1.135,1.135,0,0,0-1.1,1.2l.1,7.4h-3.6c-6.2.1-9.3,4-9.3,7.9,0,3.8,3.3,7.7,9.3,7.7h.2l8.1-.1a7.163,7.163,0,0,1,6.4,3.2,6.746,6.746,0,0,1,.1,6.6c-1.2,2.1-3.4,3.2-6.3,3.3l-15.2.2a1.135,1.135,0,0,0-1.1,1.2,1.11,1.11,0,0,0,1.1,1.1h0l10.7-.1.1,7.4a1.11,1.11,0,0,0,1.1,1.1h0a1.135,1.135,0,0,0,1.1-1.2l-.1-7.4h2.2c3.8,0,6.7-1.6,8.3-4.4A8.62,8.62,0,0,0,287,846.2Z" transform="translate(0 0)" style="fill: #fff"></path></g></svg> 